<?xml version="1.0" encoding="UTF-8"?>
<svg xmlns="http://www.w3.org/2000/svg" xmlns:xlink="http://www.w3.org/1999/xlink" width="120px" height="120px" viewBox="0 0 120 120" version="1.1">
<g id="surface1">
<path style=" stroke:none;fill-rule:nonzero;fill:rgb(48.627451%,78.823529%,94.901961%);fill-opacity:1;" d="M 110.070312 38.320312 C 110.089844 38.070312 110.097656 37.816406 110.097656 37.566406 C 110.097656 32.027344 105.789062 27.445312 100.265625 27.101562 C 97.621094 20.144531 91.171875 15.359375 83.746094 14.847656 C 76.316406 14.335938 69.273438 18.195312 65.703125 24.726562 C 65.140625 24.660156 64.578125 24.628906 64.011719 24.628906 C 59.433594 24.613281 55.089844 26.652344 52.175781 30.1875 C 51.699219 30.765625 51.613281 31.574219 51.960938 32.242188 C 52.308594 32.90625 53.015625 33.304688 53.765625 33.246094 C 53.964844 33.234375 54.175781 33.234375 54.375 33.234375 C 63.941406 33.253906 72.617188 38.855469 76.574219 47.566406 C 76.9375 48.363281 77.804688 48.804688 78.664062 48.625 C 85.347656 47.238281 92.257812 49.585938 96.710938 54.757812 C 97.070312 55.175781 97.589844 55.414062 98.136719 55.414062 L 113.042969 55.414062 C 113.710938 55.414062 114.328125 55.0625 114.664062 54.488281 C 115.703125 52.710938 116.25 50.6875 116.25 48.628906 C 116.230469 44.320312 113.863281 40.367188 110.070312 38.320312 Z M 110.070312 38.320312 "/>
<path style=" stroke:none;fill-rule:nonzero;fill:rgb(61.176471%,83.529412%,94.901961%);fill-opacity:1;" d="M 104.957031 65.585938 C 104.214844 53.730469 94.382812 44.488281 82.5 44.484375 C 81.445312 44.484375 80.394531 44.558594 79.351562 44.703125 C 74.511719 35.371094 64.886719 29.503906 54.375 29.484375 C 54.085938 29.484375 53.773438 29.488281 53.574219 29.503906 C 41.945312 29.796875 31.707031 37.253906 27.863281 48.234375 C 19.6875 48.386719 13.132812 55.054688 13.125 63.234375 C 13.125 63.808594 13.160156 64.382812 13.226562 64.953125 C 7.449219 67.800781 3.78125 73.667969 3.75 80.109375 C 3.742188 83.082031 4.53125 86 6.035156 88.5625 C 6.371094 89.132812 6.988281 89.484375 7.648438 89.484375 L 28.800781 89.484375 C 29.722656 89.484375 30.507812 88.8125 30.652344 87.902344 C 31.769531 80.84375 37.855469 75.648438 45 75.648438 C 52.144531 75.648438 58.230469 80.84375 59.347656 87.902344 C 59.492188 88.8125 60.277344 89.484375 61.199219 89.484375 L 112.011719 89.484375 C 112.625 89.484375 113.199219 89.1875 113.550781 88.683594 C 115.3125 86.171875 116.253906 83.179688 116.25 80.109375 C 116.222656 73.265625 111.585938 67.296875 104.957031 65.585938 Z M 104.957031 65.585938 "/>
<path style=" stroke:none;fill-rule:nonzero;fill:rgb(69.803922%,92.156863%,94.901961%);fill-opacity:1;" d="M 63.257812 89.269531 C 63.222656 88.617188 63.152344 87.964844 63.050781 87.316406 C 61.648438 78.4375 53.988281 71.898438 44.996094 71.898438 C 36.003906 71.898438 28.351562 78.441406 26.945312 87.324219 C 26.847656 87.96875 26.777344 88.617188 26.742188 89.269531 C 20.824219 91.40625 16.875 97.027344 16.875 103.320312 C 16.875 104.355469 17.714844 105.195312 18.75 105.195312 L 71.25 105.195312 C 72.285156 105.195312 73.125 104.355469 73.125 103.320312 C 73.125 97.027344 69.175781 91.40625 63.257812 89.269531 Z M 63.257812 89.269531 "/>
</g>
</svg>
