<?xml version="1.0" encoding="UTF-8"?>
<svg xmlns="http://www.w3.org/2000/svg" xmlns:xlink="http://www.w3.org/1999/xlink" width="120px" height="120px" viewBox="0 0 120 120" version="1.1">
<defs>
<filter id="alpha" filterUnits="objectBoundingBox" x="0%" y="0%" width="100%" height="100%">
  <feColorMatrix type="matrix" in="SourceGraphic" values="0 0 0 0 1 0 0 0 0 1 0 0 0 0 1 0 0 0 1 0"/>
</filter>
<mask id="mask0">
  <g filter="url(#alpha)">
<rect x="0" y="0" width="120" height="120" style="fill:rgb(0%,0%,0%);fill-opacity:0.329412;stroke:none;"/>
  </g>
</mask>
<clipPath id="clip1">
  <rect x="0" y="0" width="120" height="120"/>
</clipPath>
<g id="surface6" clip-path="url(#clip1)">
<path style=" stroke:none;fill-rule:nonzero;fill:rgb(70.980392%,90.588235%,99.607843%);fill-opacity:1;" d="M 68.421875 45.8125 C 68.421875 45.8125 77.914062 33.53125 86.472656 45.8125 C 86.472656 45.8125 99.746094 40.363281 102.894531 53.960938 C 103.09375 54.804688 102.894531 57.429688 102.894531 57.429688 C 102.894531 57.429688 108.765625 57.296875 112.097656 61.960938 C 112.097656 61.960938 115.296875 77.695312 96.359375 75.960938 C 96.359375 75.960938 96.433594 74.851562 90.585938 80.589844 L 94.179688 78.890625 C 94.179688 78.890625 109.550781 84.761719 116.292969 70.492188 C 116.292969 70.492188 120.097656 58.09375 107.828125 52.757812 C 107.828125 52.757812 103.785156 34.21875 87.667969 39.15625 C 87.667969 39.15625 75.15625 29.6875 66.21875 40.886719 C 66.21875 40.886719 61.019531 43.394531 67.820312 45.808594 M 52.160156 48.058594 C 52.160156 48.058594 42.449219 33.457031 33.890625 46.234375 C 33.890625 46.234375 20.832031 42.386719 17.683594 56.535156 C 17.488281 57.414062 17.683594 60.144531 17.683594 60.144531 C 17.683594 60.144531 11.042969 59.382812 9.472656 65.0625 C 7.902344 70.730469 9.222656 76.785156 28.222656 77.644531 C 29.933594 77.71875 38.292969 79.53125 29.992188 84.246094 C 29.992188 84.246094 28.949219 83.570312 28.554688 83.445312 C 22.628906 81.472656 14.957031 81.644531 5.855469 72.976562 C 5.855469 72.976562 4.046875 62.050781 12.882812 57.484375 C 12.882812 57.484375 12.617188 43.234375 32.902344 41.132812 C 32.902344 41.132812 34.089844 32.230469 59.492188 43.035156 C 59.492188 43.035156 59.550781 45.546875 52.753906 48.054688 "/>
</g>
<mask id="mask1">
  <g filter="url(#alpha)">
<rect x="0" y="0" width="120" height="120" style="fill:rgb(0%,0%,0%);fill-opacity:0.329412;stroke:none;"/>
  </g>
</mask>
<clipPath id="clip2">
  <rect x="0" y="0" width="120" height="120"/>
</clipPath>
<g id="surface9" clip-path="url(#clip2)">
<path style=" stroke:none;fill-rule:nonzero;fill:rgb(70.980392%,90.588235%,99.607843%);fill-opacity:1;" d="M 102.265625 49.972656 C 102.265625 43.230469 92.234375 37.765625 79.859375 37.765625 C 67.488281 37.765625 57.457031 43.230469 57.457031 49.972656 C 57.457031 56.714844 67.488281 62.179688 79.859375 62.179688 C 92.234375 62.179688 102.265625 56.714844 102.265625 49.972656 Z M 102.265625 49.972656 "/>
</g>
<mask id="mask2">
  <g filter="url(#alpha)">
<rect x="0" y="0" width="120" height="120" style="fill:rgb(0%,0%,0%);fill-opacity:0.329412;stroke:none;"/>
  </g>
</mask>
<clipPath id="clip3">
  <rect x="0" y="0" width="120" height="120"/>
</clipPath>
<g id="surface12" clip-path="url(#clip3)">
<path style=" stroke:none;fill-rule:nonzero;fill:rgb(70.980392%,90.588235%,99.607843%);fill-opacity:1;" d="M 51.195312 50.898438 C 47.285156 54.589844 43.109375 61.488281 33.132812 61.488281 C 23.15625 61.488281 15.066406 56.746094 15.066406 50.898438 C 15.066406 47.375 20.488281 45.601562 26.179688 43.066406 C 29.933594 41.394531 33.234375 38.207031 37.199219 38.207031 C 47.175781 38.207031 56.15625 46.222656 51.195312 50.898438 Z M 51.195312 50.898438 "/>
</g>
</defs>
<g id="surface1">
<path style=" stroke:none;fill-rule:nonzero;fill:rgb(17.254902%,75.294118%,99.607843%);fill-opacity:1;" d="M 56.761719 41.824219 C 56.761719 41.824219 54.449219 39.511719 48.578125 41.824219 C 48.578125 41.824219 37.199219 31.242188 26.175781 44.3125 C 26.175781 44.3125 10.621094 43.957031 11.421875 58.714844 C 11.421875 58.714844 -6.984375 69.472656 12.394531 78.183594 C 12.394531 78.183594 20.933594 91.164062 32.308594 81.207031 C 32.308594 81.207031 46.886719 92.050781 52.21875 79.609375 C 52.21875 79.609375 64.3125 93.832031 71.601562 80.140625 C 71.601562 80.140625 84.578125 92.765625 94.179688 78.894531 C 94.179688 78.894531 117.65625 87.691406 116.226562 60 C 116.226562 60 111.960938 52.222656 106.449219 52.757812 C 106.449219 52.757812 103.066406 34.089844 89.378906 38.886719 C 89.378906 38.886719 72.84375 30.707031 65.375 41.199219 C 65.378906 41.199219 58.6875 40.875 56.761719 41.824219 Z M 56.761719 41.824219 "/>
<use xlink:href="#surface6" mask="url(#mask0)"/>
<use xlink:href="#surface9" mask="url(#mask1)"/>
<use xlink:href="#surface12" mask="url(#mask2)"/>
<path style=" stroke:none;fill-rule:nonzero;fill:rgb(100%,100%,100%);fill-opacity:1;" d="M 115.246094 56.367188 C 113.449219 54.320312 111.625 52.9375 109.5 52.015625 C 109.113281 51.847656 108.71875 51.699219 108.320312 51.570312 C 107.222656 45.859375 104.714844 41.738281 100.84375 39.320312 C 97.132812 36.992188 93.140625 36.347656 89.046875 37.492188 C 87.644531 36.191406 86.027344 35.144531 84.269531 34.394531 C 79.605469 32.433594 74.285156 32.933594 69.660156 35.746094 C 69.171875 36.042969 68.703125 36.371094 68.257812 36.722656 C 66.796875 37.742188 65.550781 39.035156 64.578125 40.527344 C 63.496094 40.394531 62.398438 40.367188 61.308594 40.4375 C 60.605469 40.488281 59.910156 40.609375 59.230469 40.792969 C 55.972656 39.058594 52.511719 38.613281 48.980469 39.59375 C 47.640625 38.355469 46.101562 37.359375 44.425781 36.648438 C 39.960938 34.765625 34.84375 35.234375 30.402344 37.945312 C 29.933594 38.226562 29.484375 38.535156 29.054688 38.875 C 27.648438 39.859375 26.457031 41.101562 25.550781 42.496094 C 24.523438 42.371094 23.488281 42.34375 22.457031 42.410156 C 20.507812 42.53125 18.597656 43.195312 16.433594 44.496094 C 13.613281 46.195312 11.503906 49.183594 10.339844 53.132812 C 9.9375 54.546875 9.757812 56.015625 9.816406 57.484375 C 7.386719 58.246094 5.265625 59.777344 3.773438 61.839844 C 0.175781 66.914062 0.707031 73.632812 5.003906 77.464844 C 7.121094 79.34375 9.902344 80.304688 12.730469 80.128906 C 14.585938 83.007812 17.226562 85.109375 20.117188 85.960938 C 22.617188 86.691406 24.816406 86.832031 26.851562 86.386719 C 29.125 85.898438 31.234375 84.832031 32.972656 83.285156 C 35.640625 85.515625 39.28125 86.789062 42.910156 86.789062 C 43.695312 86.789062 44.476562 86.726562 45.246094 86.609375 C 48.347656 86.105469 51.234375 84.710938 53.554688 82.601562 C 55.132812 84.125 56.9375 85.285156 58.875 85.855469 C 61.480469 86.625 63.773438 86.773438 65.882812 86.304688 C 68.273438 85.796875 70.488281 84.664062 72.304688 83.027344 C 75.089844 85.378906 78.898438 86.71875 82.707031 86.71875 C 83.523438 86.71875 84.335938 86.660156 85.140625 86.53125 C 88.929688 85.910156 92.398438 84.023438 94.984375 81.183594 C 100.6875 83.550781 107.539062 82.707031 112.097656 78.96875 C 115.597656 76.097656 117.90625 72.148438 118.449219 68.136719 C 119.054688 63.660156 117.886719 59.371094 115.246094 56.367188 Z M 44.71875 83.238281 C 40.851562 83.816406 36.941406 82.515625 34.191406 79.738281 C 33.859375 79.386719 33.269531 79.324219 32.785156 79.339844 C 32.25 79.402344 31.757812 79.660156 31.402344 80.066406 C 29.988281 81.578125 28.144531 82.621094 26.121094 83.054688 C 24.660156 83.371094 23.007812 83.246094 21.074219 82.683594 C 18.726562 81.992188 16.5625 80.109375 15.140625 77.507812 C 14.808594 76.875 14.109375 76.527344 13.402344 76.640625 C 11.109375 76.96875 8.871094 76.34375 7.273438 74.914062 C 3.855469 71.867188 4.351562 66.925781 6.550781 63.816406 C 7.847656 62.042969 9.777344 60.84375 11.941406 60.464844 C 12.832031 60.296875 13.441406 59.460938 13.324219 58.558594 C 13.109375 57.066406 13.207031 55.546875 13.613281 54.097656 C 14.253906 51.925781 15.566406 49 18.191406 47.421875 C 19.867188 46.40625 21.289062 45.898438 22.664062 45.816406 C 23.871094 45.746094 24.972656 45.808594 26.113281 46.035156 C 26.863281 46.1875 27.621094 45.816406 27.964844 45.136719 C 28.652344 43.785156 29.707031 42.585938 31.09375 41.613281 C 31.441406 41.339844 31.800781 41.089844 32.175781 40.855469 C 35.671875 38.726562 39.660156 38.335938 43.105469 39.789062 C 44.648438 40.441406 46.09375 41.445312 47.28125 42.695312 C 47.742188 43.183594 48.640625 43.289062 49.269531 43.058594 C 51.054688 42.425781 52.988281 42.320312 54.832031 42.765625 C 52.007812 44.554688 49.882812 47.589844 48.703125 51.59375 C 48.277344 53.082031 48.09375 54.632812 48.160156 56.183594 C 45.609375 56.972656 43.382812 58.570312 41.820312 60.734375 C 38.078125 66.011719 38.628906 72.996094 43.101562 76.980469 C 45.269531 78.910156 48.167969 79.875 51.175781 79.742188 C 51.234375 79.835938 51.3125 79.910156 51.371094 80 C 51.355469 80.015625 51.332031 80.019531 51.316406 80.035156 C 49.476562 81.722656 47.183594 82.835938 44.71875 83.238281 Z M 115.070312 67.683594 C 114.648438 70.851562 112.777344 74.003906 109.9375 76.332031 C 106.074219 79.492188 100.0625 80.011719 95.320312 77.578125 C 94.597656 77.210938 93.714844 77.398438 93.207031 78.03125 C 90.976562 80.820312 87.925781 82.644531 84.625 83.160156 C 80.550781 83.773438 76.425781 82.40625 73.53125 79.472656 C 73.226562 79.148438 72.699219 79.074219 72.238281 79.074219 L 72.121094 79.078125 C 71.632812 79.09375 71.046875 79.453125 70.730469 79.820312 C 69.238281 81.414062 67.296875 82.511719 65.160156 82.972656 C 63.625 83.308594 61.878906 83.183594 59.84375 82.585938 C 57.367188 81.855469 55.085938 79.867188 53.585938 77.128906 C 53.246094 76.5 52.550781 76.15625 51.847656 76.261719 C 49.40625 76.601562 47.054688 75.941406 45.371094 74.441406 C 41.761719 71.21875 42.28125 65.996094 44.609375 62.714844 C 45.972656 60.84375 48.011719 59.574219 50.296875 59.175781 C 51.191406 59.007812 51.796875 58.171875 51.679688 57.273438 C 51.453125 55.699219 51.558594 54.097656 51.984375 52.566406 C 52.65625 50.28125 54.042969 47.203125 56.8125 45.53125 C 58.570312 44.472656 60.066406 43.9375 61.527344 43.847656 C 62.796875 43.765625 63.957031 43.839844 65.152344 44.074219 C 65.902344 44.234375 66.664062 43.863281 67.003906 43.175781 C 67.730469 41.753906 68.84375 40.484375 70.304688 39.460938 C 70.667969 39.171875 71.046875 38.90625 71.445312 38.667969 C 75.128906 36.429688 79.320312 36.011719 82.949219 37.542969 C 84.578125 38.230469 86.105469 39.289062 87.339844 40.605469 C 87.804688 41.09375 88.703125 41.1875 89.339844 40.96875 C 92.5625 39.828125 95.910156 40.257812 99.039062 42.214844 C 102.269531 44.238281 104.324219 47.9375 105.140625 53.195312 C 105.246094 53.882812 105.761719 54.4375 106.441406 54.597656 C 107.019531 54.730469 107.59375 54.914062 108.144531 55.15625 C 109.808594 55.878906 111.207031 56.953125 112.683594 58.632812 C 114.671875 60.878906 115.539062 64.183594 115.070312 67.683594 Z M 115.070312 67.683594 "/>
</g>
</svg>
