<?xml version="1.0" encoding="UTF-8"?>
<svg xmlns="http://www.w3.org/2000/svg" xmlns:xlink="http://www.w3.org/1999/xlink" width="120px" height="120px" viewBox="0 0 120 120" version="1.1">
<defs>
<filter id="alpha" filterUnits="objectBoundingBox" x="0%" y="0%" width="100%" height="100%">
  <feColorMatrix type="matrix" in="SourceGraphic" values="0 0 0 0 1 0 0 0 0 1 0 0 0 0 1 0 0 0 1 0"/>
</filter>
<mask id="mask0">
  <g filter="url(#alpha)">
<rect x="0" y="0" width="120" height="120" style="fill:rgb(0%,0%,0%);fill-opacity:0.329412;stroke:none;"/>
  </g>
</mask>
<clipPath id="clip1">
  <rect x="0" y="0" width="120" height="120"/>
</clipPath>
<g id="surface5" clip-path="url(#clip1)">
<path style=" stroke:none;fill-rule:nonzero;fill:rgb(70.980392%,90.588235%,99.607843%);fill-opacity:1;" d="M 68.398438 15.757812 C 68.398438 15.757812 77.875 3.503906 86.410156 15.757812 C 86.410156 15.757812 99.660156 10.320312 102.800781 23.882812 C 102.996094 24.726562 102.800781 27.34375 102.800781 27.34375 C 102.800781 27.34375 108.65625 27.210938 111.980469 31.867188 C 111.980469 31.867188 115.171875 47.566406 96.28125 45.835938 C 96.28125 45.835938 96.351562 44.730469 90.519531 50.453125 L 94.109375 48.761719 C 94.109375 48.761719 109.445312 54.617188 116.167969 40.378906 C 116.167969 40.378906 119.964844 28.007812 107.722656 22.683594 C 107.722656 22.683594 103.6875 4.191406 87.613281 9.113281 C 87.613281 9.113281 75.128906 -0.335938 66.210938 10.839844 C 66.210938 10.839844 61.023438 13.34375 67.808594 15.746094 M 52.175781 18.003906 C 52.175781 18.003906 42.484375 3.4375 33.949219 16.183594 C 33.949219 16.183594 20.914062 12.347656 17.777344 26.460938 C 17.578125 27.335938 17.777344 30.058594 17.777344 30.058594 C 17.777344 30.058594 11.152344 29.304688 9.585938 34.96875 C 8.019531 40.621094 9.335938 46.660156 28.292969 47.515625 C 29.996094 47.59375 38.335938 49.398438 30.054688 54.109375 C 30.054688 54.109375 29.011719 53.4375 28.625 53.304688 C 22.707031 51.335938 15.050781 51.507812 5.976562 42.859375 C 5.976562 42.859375 4.171875 31.960938 12.988281 27.402344 C 12.988281 27.402344 12.71875 13.1875 32.960938 11.09375 C 32.960938 11.09375 34.140625 2.214844 59.488281 12.992188 C 59.488281 12.992188 59.546875 15.496094 52.765625 18 "/>
</g>
<mask id="mask1">
  <g filter="url(#alpha)">
<rect x="0" y="0" width="120" height="120" style="fill:rgb(0%,0%,0%);fill-opacity:0.329412;stroke:none;"/>
  </g>
</mask>
<clipPath id="clip2">
  <rect x="0" y="0" width="120" height="120"/>
</clipPath>
<g id="surface8" clip-path="url(#clip2)">
<path style=" stroke:none;fill-rule:nonzero;fill:rgb(70.980392%,90.588235%,99.607843%);fill-opacity:1;" d="M 102.167969 19.90625 C 102.167969 13.179688 92.160156 7.726562 79.816406 7.726562 C 67.472656 7.726562 57.464844 13.179688 57.464844 19.90625 C 57.464844 26.636719 67.472656 32.089844 79.816406 32.089844 C 92.160156 32.089844 102.167969 26.636719 102.167969 19.90625 Z M 102.167969 19.90625 "/>
</g>
<mask id="mask2">
  <g filter="url(#alpha)">
<rect x="0" y="0" width="120" height="120" style="fill:rgb(0%,0%,0%);fill-opacity:0.329412;stroke:none;"/>
  </g>
</mask>
<clipPath id="clip3">
  <rect x="0" y="0" width="120" height="120"/>
</clipPath>
<g id="surface11" clip-path="url(#clip3)">
<path style=" stroke:none;fill-rule:nonzero;fill:rgb(70.980392%,90.588235%,99.607843%);fill-opacity:1;" d="M 51.214844 20.835938 C 47.3125 24.515625 43.148438 31.398438 33.191406 31.398438 C 23.234375 31.398438 15.167969 26.667969 15.167969 20.835938 C 15.167969 17.320312 20.574219 15.546875 26.257812 13.023438 C 30 11.355469 33.296875 8.171875 37.253906 8.171875 C 47.207031 8.171875 56.164062 16.167969 51.214844 20.835938 Z M 34.855469 71.027344 L 39.070312 83.699219 L 34.511719 80.996094 C 34.515625 80.996094 31.390625 74.382812 34.855469 71.027344 Z M 51.964844 70.050781 L 56.179688 82.722656 L 51.621094 80.019531 C 51.625 80.019531 48.5 73.40625 51.964844 70.050781 Z M 71.78125 68.914062 L 76 81.589844 L 71.441406 78.882812 C 71.441406 78.882812 68.316406 72.273438 71.78125 68.914062 Z M 90.386719 68.914062 L 94.605469 81.589844 L 90.042969 78.882812 C 90.046875 78.882812 86.925781 72.273438 90.386719 68.914062 Z M 80.121094 88.980469 L 84.335938 101.652344 L 79.777344 98.949219 C 79.78125 98.949219 76.65625 92.335938 80.121094 88.980469 Z M 68.855469 101.652344 L 73.070312 114.324219 L 68.511719 111.621094 C 68.515625 111.625 65.386719 105.007812 68.855469 101.652344 Z M 56.171875 91.605469 L 60.386719 104.277344 L 55.828125 101.570312 C 55.832031 101.570312 52.703125 94.957031 56.171875 91.605469 Z M 56.171875 91.605469 "/>
</g>
</defs>
<g id="surface1">
<path style=" stroke:none;fill-rule:nonzero;fill:rgb(17.254902%,75.294118%,99.607843%);fill-opacity:1;" d="M 89.894531 66.328125 C 89.894531 66.328125 98.277344 70.585938 95.214844 80.964844 C 95.214844 80.964844 85.503906 82.429688 89.894531 66.328125 Z M 70.644531 66.328125 C 70.644531 66.328125 79.023438 70.585938 75.964844 80.964844 C 75.96875 80.964844 66.257812 82.429688 70.644531 66.328125 Z M 51.472656 67.914062 C 51.472656 67.914062 59.851562 72.171875 56.792969 82.550781 C 56.792969 82.550781 47.078125 84.015625 51.472656 67.914062 Z M 33.800781 68.65625 C 33.800781 68.65625 42.179688 72.910156 39.121094 83.292969 C 39.121094 83.292969 29.40625 84.753906 33.800781 68.65625 Z M 55.035156 89.5625 C 55.035156 89.5625 63.414062 93.820312 60.355469 104.199219 C 60.359375 104.199219 50.648438 105.660156 55.035156 89.5625 Z M 78.984375 86.984375 C 78.984375 86.984375 87.363281 91.238281 84.304688 101.621094 C 84.308594 101.621094 74.597656 103.085938 78.984375 86.984375 Z M 68.558594 99.519531 C 68.558594 99.519531 76.941406 103.777344 73.878906 114.15625 C 73.878906 114.15625 64.167969 115.621094 68.558594 99.519531 Z M 56.765625 11.78125 C 56.765625 11.78125 54.457031 9.472656 48.605469 11.78125 C 48.605469 11.78125 37.253906 1.222656 26.253906 14.265625 C 26.253906 14.265625 10.726562 13.90625 11.527344 28.632812 C 11.527344 28.632812 -6.832031 39.363281 12.503906 48.054688 C 12.503906 48.054688 21.019531 61.003906 32.371094 51.070312 C 32.371094 51.070312 46.921875 61.890625 52.238281 49.476562 C 52.238281 49.476562 64.304688 63.667969 71.574219 50.007812 C 71.574219 50.007812 84.523438 62.605469 94.105469 48.769531 C 94.105469 48.769531 117.527344 57.542969 116.101562 29.914062 C 116.101562 29.914062 111.84375 22.15625 106.34375 22.6875 C 106.34375 22.6875 102.972656 4.058594 89.316406 8.851562 C 89.316406 8.851562 72.820312 0.691406 65.367188 11.160156 C 65.367188 11.15625 58.6875 10.835938 56.765625 11.78125 Z M 56.765625 11.78125 "/>
<use xlink:href="#surface5" mask="url(#mask0)"/>
<use xlink:href="#surface8" mask="url(#mask1)"/>
<use xlink:href="#surface11" mask="url(#mask2)"/>
<path style=" stroke:none;fill-rule:nonzero;fill:rgb(100%,100%,100%);fill-opacity:1;" d="M 70.488281 97.523438 C 70.09375 97.050781 69.480469 96.824219 68.875 96.933594 C 68.269531 97.039062 67.769531 97.464844 67.5625 98.042969 C 67.292969 98.816406 64.945312 105.722656 65.632812 109.597656 C 65.984375 111.601562 66.78125 113.425781 67.867188 114.742188 C 68.980469 116.089844 70.351562 116.820312 71.71875 116.820312 C 71.941406 116.820312 72.164062 116.800781 72.382812 116.757812 C 73.46875 116.566406 74.421875 115.929688 75.132812 114.90625 C 76.339844 113.183594 76.773438 110.492188 76.277344 107.714844 C 75.585938 103.839844 71.003906 98.160156 70.488281 97.523438 Z M 72.335938 112.953125 C 72.230469 113.101562 72.019531 113.359375 71.785156 113.398438 C 71.441406 113.480469 70.949219 113.128906 70.488281 112.5625 C 69.777344 111.710938 69.226562 110.410156 68.980469 109 C 68.695312 107.386719 69.230469 104.613281 69.832031 102.328125 C 71.179688 104.273438 72.636719 106.6875 72.921875 108.304688 C 73.3125 110.554688 72.855469 112.214844 72.335938 112.953125 Z M 115.125 26.292969 C 113.328125 24.246094 111.507812 22.867188 109.390625 21.949219 C 109.007812 21.78125 108.613281 21.632812 108.214844 21.503906 C 107.125 15.804688 104.621094 11.691406 100.757812 9.28125 C 97.050781 6.957031 93.066406 6.3125 88.984375 7.457031 C 87.585938 6.15625 85.972656 5.113281 84.214844 4.367188 C 79.5625 2.40625 74.257812 2.90625 69.644531 5.714844 C 69.15625 6.011719 68.691406 6.335938 68.242188 6.6875 C 66.789062 7.707031 65.542969 8.996094 64.574219 10.484375 C 63.492188 10.351562 62.402344 10.320312 61.3125 10.390625 C 60.613281 10.445312 59.917969 10.5625 59.238281 10.746094 C 55.988281 9.019531 52.535156 8.574219 49.011719 9.546875 C 47.675781 8.316406 46.140625 7.320312 44.46875 6.613281 C 40.007812 4.734375 34.902344 5.207031 30.472656 7.90625 C 30.003906 8.1875 29.554688 8.5 29.128906 8.835938 C 27.742188 9.804688 26.554688 11.03125 25.632812 12.449219 C 24.609375 12.324219 23.574219 12.296875 22.542969 12.363281 C 20.605469 12.484375 18.691406 13.144531 16.53125 14.445312 C 13.714844 16.144531 11.617188 19.121094 10.453125 23.0625 C 10.050781 24.472656 9.871094 25.9375 9.929688 27.402344 C 7.503906 28.167969 5.390625 29.691406 3.898438 31.753906 C 0.3125 36.816406 0.84375 43.515625 5.132812 47.339844 C 7.246094 49.21875 10.019531 50.175781 12.839844 50 C 14.6875 52.875 17.324219 54.96875 20.207031 55.820312 C 22.699219 56.550781 24.894531 56.691406 26.929688 56.246094 C 29.195312 55.761719 31.300781 54.695312 33.03125 53.152344 C 35.691406 55.378906 39.324219 56.648438 42.949219 56.648438 C 43.726562 56.648438 44.507812 56.589844 45.28125 56.46875 C 48.371094 55.964844 51.25 54.578125 53.566406 52.46875 C 55.140625 53.988281 56.941406 55.148438 58.875 55.714844 C 61.472656 56.480469 63.761719 56.628906 65.867188 56.164062 C 68.253906 55.65625 70.464844 54.527344 72.277344 52.894531 C 75.050781 55.242188 78.855469 56.578125 82.65625 56.578125 C 83.472656 56.578125 84.28125 56.519531 85.085938 56.390625 C 88.863281 55.769531 92.324219 53.890625 94.902344 51.054688 C 100.597656 53.414062 107.433594 52.574219 111.976562 48.847656 C 115.46875 45.984375 117.777344 42.042969 118.3125 38.039062 C 118.921875 33.5625 117.757812 29.289062 115.125 26.292969 Z M 44.757812 53.101562 C 40.898438 53.679688 36.996094 52.378906 34.253906 49.609375 C 33.921875 49.257812 33.328125 49.191406 32.847656 49.207031 C 32.3125 49.269531 31.820312 49.527344 31.46875 49.9375 C 30.054688 51.441406 28.214844 52.480469 26.195312 52.914062 C 24.738281 53.230469 23.09375 53.109375 21.164062 52.542969 C 18.824219 51.851562 16.664062 49.972656 15.238281 47.378906 C 14.910156 46.75 14.214844 46.402344 13.511719 46.519531 C 11.21875 46.847656 8.992188 46.222656 7.394531 44.800781 C 3.988281 41.761719 4.480469 36.824219 6.675781 33.722656 C 7.96875 31.957031 9.894531 30.757812 12.050781 30.378906 C 12.945312 30.21875 13.550781 29.382812 13.433594 28.484375 C 13.21875 26.992188 13.320312 25.476562 13.71875 24.023438 C 14.359375 21.855469 15.667969 18.941406 18.289062 17.363281 C 19.960938 16.355469 21.375 15.847656 22.746094 15.765625 C 23.953125 15.695312 25.050781 15.757812 26.1875 15.984375 C 26.9375 16.136719 27.695312 15.765625 28.035156 15.085938 C 28.722656 13.734375 29.777344 12.539062 31.15625 11.566406 C 31.503906 11.300781 31.863281 11.046875 32.238281 10.820312 C 35.726562 8.695312 39.703125 8.304688 43.144531 9.753906 C 44.71875 10.425781 46.136719 11.410156 47.3125 12.652344 C 47.777344 13.140625 48.667969 13.242188 49.296875 13.015625 C 51.078125 12.382812 53.003906 12.277344 54.84375 12.71875 C 52.027344 14.507812 49.90625 17.53125 48.726562 21.527344 C 48.3125 22.949219 48.128906 24.511719 48.183594 26.109375 C 45.640625 26.894531 43.417969 28.488281 41.859375 30.648438 C 38.128906 35.910156 38.675781 42.878906 43.136719 46.855469 C 45.300781 48.785156 48.191406 49.742188 51.191406 49.617188 C 51.253906 49.707031 51.328125 49.785156 51.386719 49.871094 C 51.371094 49.886719 51.347656 49.890625 51.332031 49.90625 C 49.496094 51.585938 47.210938 52.695312 44.757812 53.101562 Z M 114.945312 37.578125 C 114.519531 40.738281 112.652344 43.882812 109.820312 46.207031 C 105.96875 49.359375 99.972656 49.878906 95.238281 47.453125 C 94.519531 47.085938 93.640625 47.273438 93.132812 47.902344 C 90.902344 50.6875 87.859375 52.503906 84.566406 53.023438 C 80.503906 53.636719 76.390625 52.269531 73.5 49.34375 C 73.195312 49.019531 72.667969 48.949219 72.210938 48.949219 L 72.09375 48.953125 C 71.605469 48.964844 71.023438 49.324219 70.707031 49.6875 C 69.074219 51.359375 67.308594 52.359375 65.148438 52.832031 C 63.613281 53.167969 61.875 53.039062 59.84375 52.445312 C 57.375 51.71875 55.097656 49.734375 53.597656 47 C 53.257812 46.375 52.566406 46.03125 51.863281 46.132812 C 49.429688 46.472656 47.085938 45.8125 45.398438 44.316406 C 41.796875 41.105469 42.316406 35.890625 44.636719 32.621094 C 46 30.753906 48.03125 29.488281 50.308594 29.089844 C 51.199219 28.921875 51.808594 28.085938 51.6875 27.1875 C 51.460938 25.621094 51.566406 24.023438 51.992188 22.496094 C 52.664062 20.210938 54.042969 17.144531 56.8125 15.476562 C 58.566406 14.414062 60.058594 13.882812 61.515625 13.796875 C 62.726562 13.710938 63.941406 13.785156 65.132812 14.023438 C 65.878906 14.175781 66.636719 13.808594 66.980469 13.128906 C 67.707031 11.707031 68.816406 10.445312 70.273438 9.421875 C 70.632812 9.132812 71.011719 8.867188 71.410156 8.628906 C 75.089844 6.390625 79.273438 5.980469 82.890625 7.507812 C 84.519531 8.195312 86.039062 9.246094 87.277344 10.558594 C 87.734375 11.046875 88.636719 11.144531 89.273438 10.925781 C 92.492188 9.785156 95.828125 10.210938 98.953125 12.167969 C 102.175781 14.1875 104.222656 17.875 105.039062 23.121094 C 105.148438 23.808594 105.660156 24.359375 106.335938 24.515625 C 106.910156 24.652344 107.484375 24.835938 108.035156 25.070312 C 109.695312 25.792969 111.09375 26.859375 112.5625 28.539062 C 114.542969 30.796875 115.414062 34.089844 114.945312 37.578125 Z M 35.214844 67.398438 C 34.761719 66.980469 34.117188 66.839844 33.53125 67.03125 C 32.945312 67.226562 32.511719 67.722656 32.394531 68.328125 C 32.238281 69.136719 30.886719 76.304688 32.113281 80.042969 C 33.367188 83.878906 36.003906 86.367188 38.585938 86.367188 C 39 86.367188 39.414062 86.300781 39.8125 86.171875 C 41.335938 85.671875 42.445312 84.246094 42.84375 82.261719 C 43.179688 80.589844 43.015625 78.601562 42.382812 76.667969 C 41.15625 72.9375 35.820312 67.957031 35.214844 67.398438 Z M 39.503906 81.589844 C 39.359375 82.308594 39.0625 82.835938 38.746094 82.941406 C 38.078125 83.117188 36.277344 81.824219 35.34375 78.980469 C 34.835938 77.421875 34.972656 74.601562 35.242188 72.253906 C 36.851562 73.984375 38.636719 76.171875 39.148438 77.730469 C 39.597656 79.09375 39.722656 80.496094 39.503906 81.589844 Z M 55.699219 84.960938 C 56.113281 84.960938 56.523438 84.894531 56.914062 84.765625 C 58.441406 84.265625 59.542969 82.839844 59.949219 80.851562 C 60.285156 79.179688 60.125 77.195312 59.488281 75.265625 C 58.261719 71.527344 52.925781 66.550781 52.320312 65.996094 C 51.867188 65.574219 51.222656 65.433594 50.636719 65.628906 C 50.050781 65.820312 49.613281 66.316406 49.5 66.925781 C 49.34375 67.730469 47.992188 74.894531 49.214844 78.636719 C 50.097656 81.316406 51.738281 83.484375 53.621094 84.4375 C 54.316406 84.785156 55.015625 84.960938 55.699219 84.960938 Z M 52.351562 70.84375 C 53.960938 72.578125 55.742188 74.769531 56.261719 76.328125 C 56.703125 77.6875 56.835938 79.089844 56.617188 80.179688 C 56.472656 80.898438 56.175781 81.429688 55.859375 81.53125 C 55.625 81.609375 55.324219 81.476562 55.164062 81.394531 C 54.359375 80.992188 53.171875 79.746094 52.457031 77.574219 C 51.945312 76.011719 52.085938 73.195312 52.351562 70.84375 Z M 57.289062 86.703125 C 56.898438 86.222656 56.277344 85.996094 55.671875 86.109375 C 55.066406 86.214844 54.5625 86.640625 54.363281 87.222656 C 54.09375 87.996094 51.742188 94.90625 52.429688 98.78125 C 52.785156 100.785156 53.574219 102.609375 54.664062 103.925781 C 55.777344 105.269531 57.152344 106 58.519531 106 C 58.742188 106.003906 58.964844 105.980469 59.183594 105.941406 C 62.21875 105.402344 63.886719 101.515625 63.070312 96.898438 C 62.386719 93.019531 57.808594 87.339844 57.289062 86.703125 Z M 58.589844 102.589844 C 58.246094 102.628906 57.753906 102.316406 57.289062 101.753906 C 56.578125 100.894531 56.03125 99.601562 55.78125 98.1875 C 55.492188 96.570312 56.03125 93.800781 56.628906 91.511719 C 57.976562 93.457031 59.433594 95.875 59.714844 97.492188 C 60.238281 100.433594 59.285156 102.464844 58.589844 102.589844 Z M 81.628906 84.992188 C 81.242188 84.507812 80.621094 84.277344 80.015625 84.390625 C 79.40625 84.496094 78.90625 84.925781 78.703125 85.507812 C 78.433594 86.28125 76.078125 93.1875 76.769531 97.058594 C 77.121094 99.0625 77.914062 100.890625 79.003906 102.207031 C 80.117188 103.550781 81.492188 104.285156 82.859375 104.28125 C 83.082031 104.28125 83.304688 104.261719 83.523438 104.21875 C 84.609375 104.03125 85.558594 103.390625 86.273438 102.367188 C 87.480469 100.644531 87.902344 97.953125 87.410156 95.179688 C 86.722656 91.304688 82.148438 85.625 81.628906 84.992188 Z M 83.480469 100.414062 C 83.375 100.5625 83.164062 100.824219 82.929688 100.863281 C 82.644531 100.9375 82.089844 100.59375 81.628906 100.027344 C 80.914062 99.175781 80.367188 97.875 80.121094 96.464844 C 79.835938 94.847656 80.371094 92.074219 80.972656 89.792969 C 82.320312 91.730469 83.777344 94.152344 84.058594 95.773438 C 84.457031 98.015625 83.996094 99.675781 83.480469 100.414062 Z M 79.640625 79.210938 C 79.980469 77.539062 79.820312 75.550781 79.183594 73.621094 C 77.957031 69.886719 72.621094 64.90625 72.015625 64.351562 C 71.5625 63.9375 70.917969 63.800781 70.332031 63.992188 C 69.75 64.183594 69.3125 64.675781 69.191406 65.28125 C 69.035156 66.089844 67.683594 73.257812 68.90625 76.996094 C 70.167969 80.832031 72.800781 83.324219 75.375 83.324219 C 75.792969 83.324219 76.207031 83.253906 76.605469 83.125 C 78.132812 82.628906 79.242188 81.199219 79.640625 79.210938 Z M 76.304688 78.539062 C 76.160156 79.261719 75.863281 79.789062 75.546875 79.890625 C 74.929688 80.09375 73.078125 78.777344 72.148438 75.933594 C 71.636719 74.371094 71.777344 71.550781 72.046875 69.203125 C 73.65625 70.9375 75.441406 73.125 75.953125 74.683594 C 76.394531 76.042969 76.523438 77.449219 76.304688 78.539062 Z M 90.03125 64.308594 C 89.578125 63.886719 88.933594 63.75 88.347656 63.941406 C 87.761719 64.132812 87.324219 64.628906 87.207031 65.234375 C 87.050781 66.039062 85.695312 73.210938 86.921875 76.953125 C 88.183594 80.789062 90.820312 83.277344 93.394531 83.277344 C 93.8125 83.277344 94.226562 83.210938 94.625 83.078125 C 96.144531 82.578125 97.253906 81.15625 97.652344 79.167969 C 97.992188 77.496094 97.832031 75.507812 97.195312 73.574219 C 95.96875 69.839844 90.636719 64.863281 90.03125 64.308594 Z M 94.316406 78.492188 C 94.175781 79.210938 93.878906 79.738281 93.566406 79.84375 C 92.855469 80.019531 91.097656 78.726562 90.160156 75.882812 C 89.648438 74.324219 89.789062 71.503906 90.058594 69.15625 C 91.667969 70.886719 93.453125 73.074219 93.964844 74.636719 C 94.402344 76 94.535156 77.402344 94.316406 78.492188 Z M 94.316406 78.492188 "/>
</g>
</svg>
