<?xml version="1.0" encoding="UTF-8"?>
<svg xmlns="http://www.w3.org/2000/svg" xmlns:xlink="http://www.w3.org/1999/xlink" width="120px" height="120px" viewBox="0 0 120 120" version="1.1">
<g id="surface1">
<path style=" stroke:none;fill-rule:nonzero;fill:rgb(100%,100%,100%);fill-opacity:1;" d="M 3.75 42.542969 L 8.363281 42.542969 C 9.398438 42.542969 10.238281 41.703125 10.238281 40.667969 C 10.238281 39.632812 9.398438 38.792969 8.363281 38.792969 L 3.75 38.792969 C 2.714844 38.792969 1.875 39.632812 1.875 40.667969 C 1.875 41.703125 2.714844 42.542969 3.75 42.542969 Z M 3.75 42.542969 "/>
<path style=" stroke:none;fill-rule:nonzero;fill:rgb(43.137255%,61.960784%,100%);fill-opacity:1;" d="M 34.613281 88.40625 L 96.488281 88.40625 C 104.722656 88.332031 111.472656 81.851562 111.886719 73.625 C 112.300781 65.398438 106.230469 58.273438 98.042969 57.375 C 98.050781 57.210938 98.050781 57.050781 98.042969 56.886719 C 98.046875 53.816406 96.832031 50.871094 94.660156 48.703125 C 92.488281 46.53125 89.542969 45.3125 86.476562 45.320312 C 86.082031 45.292969 85.6875 45.292969 85.292969 45.320312 L 84.375 45.320312 L 83.867188 45.449219 C 83.460938 45.539062 83.0625 45.652344 82.667969 45.789062 L 82.5 45.789062 C 82.117188 45.929688 81.742188 46.09375 81.375 46.273438 C 78.953125 35.636719 69.484375 28.097656 58.574219 28.125 C 57.824219 28.125 57.09375 28.125 56.363281 28.21875 L 55.632812 28.3125 L 55.03125 28.3125 L 54.019531 28.480469 L 53.230469 28.667969 L 52.367188 28.875 C 51.390625 29.1875 50.429688 29.5625 49.5 30 L 48.449219 30.46875 C 47.769531 30.789062 47.105469 31.144531 46.460938 31.539062 L 45.523438 32.15625 C 45.207031 32.34375 44.90625 32.585938 44.605469 32.8125 L 44.023438 33.261719 L 43.238281 33.917969 L 42.992188 34.125 C 42.890625 34.203125 42.796875 34.292969 42.710938 34.386719 C 42.488281 34.574219 42.28125 34.800781 42.054688 35.007812 L 41.289062 35.8125 C 41.023438 36.09375 40.78125 36.355469 40.554688 36.65625 C 40.332031 36.957031 40.085938 37.21875 39.863281 37.539062 C 39.648438 37.816406 39.449219 38.101562 39.261719 38.398438 C 38.59375 39.332031 38.003906 40.316406 37.5 41.34375 C 37.332031 41.679688 37.179688 42.019531 37.03125 42.394531 C 36.882812 42.769531 36.675781 43.238281 36.523438 43.6875 L 36.242188 44.53125 C 36.148438 44.8125 36.039062 45.242188 35.945312 45.601562 C 35.851562 45.957031 35.757812 46.386719 35.664062 46.761719 C 35.570312 47.136719 35.476562 47.664062 35.417969 48.113281 L 34.574219 48.113281 C 23.441406 48.113281 14.417969 57.136719 14.417969 68.269531 C 14.417969 79.402344 23.441406 88.425781 34.574219 88.425781 Z M 34.613281 88.40625 "/>
<path style=" stroke:none;fill-rule:nonzero;fill:rgb(99.607843%,85.882353%,25.490196%);fill-opacity:1;" d="M 19.726562 54.695312 C 23.542969 50.492188 28.957031 48.105469 34.632812 48.113281 L 35.476562 48.113281 C 35.476562 47.664062 35.625 47.195312 35.71875 46.761719 C 35.8125 46.332031 35.90625 45.957031 36 45.601562 C 36.09375 45.242188 36.1875 44.886719 36.300781 44.53125 C 36.414062 44.175781 36.488281 43.96875 36.582031 43.6875 C 36.675781 43.40625 36.898438 42.824219 37.085938 42.394531 C 37.273438 41.960938 37.386719 41.699219 37.554688 41.34375 C 38.046875 40.304688 38.625 39.308594 39.28125 38.363281 C 39.464844 38.066406 39.667969 37.777344 39.882812 37.5 C 40.105469 37.199219 40.332031 36.898438 40.574219 36.617188 C 40.820312 36.335938 41.042969 36.054688 41.304688 35.773438 L 42.074219 34.96875 C 42.28125 34.761719 42.507812 34.539062 42.730469 34.351562 C 42.816406 34.253906 42.910156 34.167969 43.011719 34.085938 C 40.140625 27.683594 33.496094 23.835938 26.511719 24.539062 C 19.527344 25.242188 13.78125 30.335938 12.246094 37.183594 C 10.707031 44.03125 13.730469 51.09375 19.742188 54.710938 Z M 19.726562 54.695312 "/>
<path style=" stroke:none;fill-rule:nonzero;fill:rgb(100%,100%,100%);fill-opacity:1;" d="M 34.445312 109.726562 C 35.316406 109.753906 36.09375 109.179688 36.320312 108.335938 L 39.1875 97.648438 C 39.417969 96.664062 38.824219 95.675781 37.847656 95.414062 C 36.875 95.152344 35.863281 95.707031 35.570312 96.675781 L 32.699219 107.363281 C 32.546875 107.9375 32.671875 108.550781 33.042969 109.015625 C 33.410156 109.484375 33.980469 109.746094 34.574219 109.726562 Z M 56.625 109.726562 C 57.496094 109.753906 58.273438 109.179688 58.5 108.335938 L 61.367188 97.648438 C 61.597656 96.664062 61.007812 95.675781 60.03125 95.414062 C 59.054688 95.152344 58.046875 95.707031 57.75 96.675781 L 54.882812 107.363281 C 54.726562 107.9375 54.851562 108.550781 55.222656 109.015625 C 55.59375 109.484375 56.160156 109.746094 56.757812 109.726562 Z M 78.75 109.726562 C 79.621094 109.753906 80.398438 109.179688 80.625 108.335938 L 83.492188 97.648438 C 83.722656 96.664062 83.132812 95.675781 82.15625 95.414062 C 81.179688 95.152344 80.171875 95.707031 79.875 96.675781 L 77.007812 107.363281 C 76.851562 107.9375 76.976562 108.550781 77.347656 109.015625 C 77.71875 109.484375 78.285156 109.746094 78.882812 109.726562 Z M 12.523438 35.625 C 12.980469 35.828125 13.496094 35.839844 13.960938 35.660156 C 14.425781 35.480469 14.800781 35.125 15 34.667969 C 17.28125 29.738281 22.140625 26.507812 27.570312 26.3125 C 33 26.121094 38.078125 28.996094 40.707031 33.75 L 39.9375 34.554688 C 39.636719 34.875 39.355469 35.195312 39.167969 35.457031 C 38.925781 35.738281 38.679688 36.039062 38.457031 36.335938 C 38.222656 36.636719 38.003906 36.953125 37.800781 37.273438 C 37.09375 38.246094 36.464844 39.277344 35.925781 40.351562 C 35.738281 40.726562 35.570312 41.101562 35.417969 41.492188 C 35.230469 41.945312 35.023438 42.414062 34.875 42.863281 C 34.726562 43.3125 34.648438 43.5 34.574219 43.761719 L 34.574219 43.988281 L 34.3125 44.886719 C 34.21875 45.242188 34.125 45.636719 34.050781 46.011719 C 33.335938 46.011719 32.644531 46.011719 31.929688 46.179688 L 31.257812 46.292969 C 30.789062 46.292969 30.320312 46.445312 29.851562 46.554688 L 29.0625 46.761719 L 27.824219 47.117188 L 27.019531 47.417969 L 25.855469 47.886719 L 25.070312 48.261719 L 23.980469 48.824219 L 23.210938 49.273438 L 22.179688 49.949219 L 21.46875 50.476562 L 20.492188 51.261719 L 19.835938 51.824219 L 19.59375 52.03125 C 15.964844 49.394531 13.777344 45.210938 13.6875 40.726562 C 13.6875 39.691406 12.847656 38.851562 11.8125 38.851562 C 10.777344 38.851562 9.9375 39.691406 9.9375 40.726562 C 9.925781 46.34375 12.53125 51.644531 16.988281 55.070312 C 11.984375 61.742188 11.1875 70.671875 14.921875 78.128906 C 18.660156 85.585938 26.289062 90.292969 34.632812 90.28125 L 84.375 90.28125 C 85.410156 90.28125 86.25 89.441406 86.25 88.40625 C 86.25 87.371094 85.410156 86.53125 84.375 86.53125 L 34.613281 86.53125 C 24.753906 86.539062 16.667969 78.714844 16.347656 68.859375 C 16.027344 59.003906 23.589844 50.675781 33.429688 50.042969 L 33.429688 53.34375 C 33.507812 54.320312 34.328125 55.070312 35.304688 55.070312 L 35.457031 55.070312 C 36.484375 54.980469 37.25 54.074219 37.164062 53.042969 L 37.164062 51.449219 C 37.160156 50 37.304688 48.558594 37.59375 47.136719 C 37.59375 46.78125 37.761719 46.40625 37.855469 46.03125 C 37.949219 45.65625 38.023438 45.394531 38.136719 45.039062 C 38.25 44.679688 38.289062 44.53125 38.398438 44.269531 C 38.511719 44.007812 38.699219 43.5 38.867188 43.085938 C 39.039062 42.675781 39.148438 42.449219 39.300781 42.132812 C 39.75 41.171875 40.277344 40.25 40.875 39.375 C 41.03125 39.121094 41.199219 38.878906 41.382812 38.644531 C 41.570312 38.382812 41.773438 38.136719 42.054688 37.800781 C 42.335938 37.460938 42.449219 37.3125 42.710938 37.050781 L 43.386719 36.320312 L 43.929688 35.792969 L 44.175781 35.550781 L 44.363281 35.398438 L 45.113281 34.78125 L 45.601562 34.386719 L 45.769531 34.257812 C 45.992188 34.082031 46.222656 33.917969 46.460938 33.769531 L 47.324219 33.207031 C 47.929688 32.847656 48.558594 32.519531 49.199219 32.230469 L 50.15625 31.800781 C 51.015625 31.433594 51.898438 31.117188 52.800781 30.863281 L 53.605469 30.65625 L 54.300781 30.507812 L 55.273438 30.355469 L 58.5 30.355469 C 68.085938 30.390625 76.496094 36.757812 79.125 45.976562 C 73.316406 49.910156 71.519531 57.65625 75 63.75 C 75.566406 64.527344 76.628906 64.75 77.457031 64.269531 C 78.289062 63.785156 78.621094 62.75 78.226562 61.875 C 76.800781 59.511719 76.453125 56.652344 77.269531 54.015625 C 78.085938 51.378906 79.988281 49.21875 82.5 48.074219 L 82.929688 47.886719 C 83.386719 47.707031 83.859375 47.5625 84.335938 47.457031 L 84.636719 47.457031 C 85.199219 47.351562 85.769531 47.292969 86.34375 47.289062 L 86.492188 47.289062 C 91.847656 47.289062 96.1875 51.628906 96.1875 56.980469 C 96.1875 56.980469 96.1875 57.167969 96.1875 57.261719 C 96.128906 57.761719 96.273438 58.261719 96.585938 58.652344 C 96.902344 59.042969 97.359375 59.292969 97.855469 59.34375 C 105.085938 60.101562 110.460938 66.382812 110.097656 73.640625 C 109.734375 80.902344 103.757812 86.613281 96.488281 86.644531 L 91.613281 86.644531 C 90.578125 86.644531 89.738281 87.484375 89.738281 88.519531 C 89.738281 89.554688 90.578125 90.394531 91.613281 90.394531 L 96.488281 90.394531 C 105.453125 90.394531 112.957031 83.59375 113.839844 74.671875 C 114.71875 65.75 108.691406 57.613281 99.898438 55.855469 C 99.300781 48.921875 93.511719 43.589844 86.550781 43.554688 L 85.5 43.554688 L 84.429688 43.6875 L 83.980469 43.6875 C 83.527344 43.777344 83.074219 43.890625 82.632812 44.023438 C 79.34375 33.488281 69.609375 26.296875 58.574219 26.25 C 57.769531 26.25 56.980469 26.25 56.117188 26.363281 L 54.75 26.363281 L 53.550781 26.570312 L 52.820312 26.738281 L 51.863281 26.980469 C 50.808594 27.277344 49.777344 27.640625 48.769531 28.070312 L 47.625 28.574219 C 46.890625 28.925781 46.179688 29.3125 45.488281 29.738281 C 45.132812 29.945312 44.792969 30.1875 44.550781 30.355469 C 44.234375 30.554688 43.925781 30.765625 43.632812 30.992188 C 40.121094 25.328125 33.789062 22.039062 27.136719 22.429688 C 20.480469 22.824219 14.578125 26.828125 11.757812 32.867188 C 11.445312 33.324219 11.355469 33.894531 11.5 34.425781 C 11.648438 34.957031 12.023438 35.394531 12.523438 35.625 Z M 28.125 18.617188 C 29.160156 18.617188 30 17.777344 30 16.742188 L 30 12.148438 C 30 11.113281 29.160156 10.273438 28.125 10.273438 C 27.089844 10.273438 26.25 11.113281 26.25 12.148438 L 26.25 16.742188 C 26.25 17.777344 27.089844 18.617188 28.125 18.617188 Z M 9.863281 25.085938 C 10.601562 25.660156 11.648438 25.601562 12.316406 24.949219 C 12.984375 24.296875 13.074219 23.253906 12.523438 22.5 L 9.261719 19.179688 C 8.519531 18.542969 7.410156 18.585938 6.71875 19.28125 C 6.023438 19.972656 5.980469 21.082031 6.617188 21.824219 Z M 9.863281 25.085938 "/>
<path style=" stroke:none;fill-rule:nonzero;fill:rgb(100%,100%,100%);fill-opacity:1;" d="M 7.929688 62.71875 C 8.429688 62.722656 8.910156 62.527344 9.261719 62.175781 L 12.523438 58.914062 C 13.261719 58.175781 13.261719 56.984375 12.523438 56.25 C 11.789062 55.515625 10.597656 55.515625 9.863281 56.25 L 6.617188 59.53125 C 6.078125 60.066406 5.914062 60.878906 6.207031 61.582031 C 6.5 62.285156 7.1875 62.742188 7.949219 62.738281 Z M 45 25.632812 C 45.5 25.632812 45.976562 25.4375 46.332031 25.085938 L 49.59375 21.824219 C 50.324219 21.074219 50.308594 19.875 49.554688 19.144531 C 48.804688 18.414062 47.605469 18.429688 46.875 19.179688 L 43.707031 22.5 C 43.21875 23.035156 43.085938 23.804688 43.363281 24.476562 C 43.640625 25.144531 44.277344 25.59375 45 25.632812 Z M 38.289062 58.5 C 38.039062 57.847656 37.453125 57.386719 36.761719 57.300781 C 36.066406 57.21875 35.386719 57.523438 34.988281 58.097656 C 34.59375 58.675781 34.550781 59.421875 34.875 60.039062 C 35.199219 60.761719 35.554688 61.476562 35.945312 62.175781 C 36.460938 63.082031 37.617188 63.394531 38.523438 62.878906 C 39.429688 62.359375 39.742188 61.207031 39.226562 60.300781 C 38.875 59.726562 38.5625 59.125 38.289062 58.5 Z M 38.289062 58.5 "/>
</g>
</svg>
