<?xml version="1.0" encoding="UTF-8"?>
<svg xmlns="http://www.w3.org/2000/svg" xmlns:xlink="http://www.w3.org/1999/xlink" width="120px" height="120px" viewBox="0 0 120 120" version="1.1">
<g id="surface1">
<path style=" stroke:none;fill-rule:nonzero;fill:rgb(43.137255%,61.960784%,100%);fill-opacity:1;" d="M 102.523438 52.144531 C 102.53125 51.988281 102.53125 51.832031 102.523438 51.675781 C 102.523438 45.460938 97.488281 40.425781 91.273438 40.425781 C 90.886719 40.402344 90.5 40.402344 90.113281 40.425781 C 89.835938 40.445312 89.558594 40.484375 89.289062 40.539062 L 89.136719 40.539062 L 88.667969 40.648438 C 88.15625 40.761719 87.652344 40.917969 87.167969 41.117188 C 87.042969 41.152344 86.921875 41.203125 86.8125 41.269531 C 86.613281 41.339844 86.417969 41.429688 86.230469 41.53125 C 83.972656 31.035156 74.691406 23.539062 63.957031 23.53125 C 63.226562 23.53125 62.511719 23.53125 61.800781 23.625 L 61.085938 23.71875 L 60.507812 23.71875 L 59.511719 23.867188 L 58.742188 24.039062 L 57.898438 24.242188 C 56.941406 24.515625 56.003906 24.847656 55.085938 25.238281 L 54.074219 25.707031 C 53.433594 26.023438 52.804688 26.375 52.199219 26.757812 L 51.75 27.039062 L 51.320312 27.300781 C 51 27.488281 50.71875 27.710938 50.417969 27.9375 L 49.835938 28.386719 L 49.070312 29.023438 L 48.5625 29.492188 C 48.335938 29.679688 48.132812 29.886719 47.925781 30.09375 L 47.175781 30.882812 C 46.914062 31.144531 46.6875 31.425781 46.460938 31.707031 C 46.238281 31.988281 45.992188 32.269531 45.789062 32.570312 C 45.578125 32.839844 45.386719 33.121094 45.207031 33.414062 C 44.566406 34.332031 44 35.304688 43.519531 36.320312 C 43.367188 36.65625 43.199219 36.992188 43.050781 37.332031 C 42.898438 37.667969 42.695312 38.15625 42.5625 38.585938 C 42.429688 39.019531 42.375 39.148438 42.300781 39.414062 C 42.226562 39.675781 42.09375 40.105469 42 40.460938 C 41.90625 40.820312 41.8125 41.230469 41.738281 41.605469 C 41.664062 41.980469 41.570312 42.488281 41.492188 42.917969 L 40.667969 42.917969 C 32.605469 42.914062 25.355469 47.824219 22.367188 55.3125 C 21.421875 57.632812 20.9375 60.117188 20.945312 62.625 C 20.851562 73.507812 29.597656 82.40625 40.480469 82.5 L 100.988281 82.5 C 109.179688 82.625 116 76.238281 116.40625 68.054688 C 116.816406 59.871094 110.667969 52.835938 102.507812 52.144531 Z M 102.523438 52.144531 "/>
<path style=" stroke:none;fill-rule:nonzero;fill:rgb(99.607843%,85.882353%,25.490196%);fill-opacity:1;" d="M 22.179688 55.460938 C 25.1875 47.996094 32.433594 43.109375 40.480469 43.125 L 41.25 43.125 C 41.25 42.675781 41.398438 42.226562 41.492188 41.8125 C 41.585938 41.398438 41.664062 41.023438 41.757812 40.667969 C 41.851562 40.3125 41.945312 39.976562 42.054688 39.617188 C 42.167969 39.261719 42.226562 39.054688 42.320312 38.792969 C 42.414062 38.53125 42.636719 37.949219 42.804688 37.539062 C 42.976562 37.125 43.105469 36.863281 43.273438 36.523438 C 43.765625 35.492188 44.34375 34.5 45 33.5625 C 45.179688 33.273438 45.375 32.988281 45.582031 32.71875 C 45.804688 32.417969 46.03125 32.136719 46.257812 31.855469 C 46.480469 31.574219 46.726562 31.292969 46.96875 31.03125 L 47.71875 30.242188 C 47.925781 30.039062 48.132812 29.832031 48.355469 29.644531 L 48.863281 29.175781 L 49.632812 28.539062 L 50.25 28.125 C 50.550781 27.898438 50.832031 27.675781 51.148438 27.488281 C 49.109375 17.050781 40.4375 9.203125 29.851562 8.210938 C 30.335938 8.605469 30.804688 9.039062 31.257812 9.488281 C 38.503906 16.734375 38.503906 28.488281 31.257812 35.738281 C 24.007812 42.984375 12.253906 42.984375 5.007812 35.738281 C 4.5625 35.273438 4.140625 34.785156 3.75 34.273438 C 4.679688 44.5625 12.089844 53.097656 22.144531 55.460938 Z M 22.179688 55.460938 "/>
<path style=" stroke:none;fill-rule:nonzero;fill:rgb(100%,100%,100%);fill-opacity:1;" d="M 101.007812 80.625 L 97.5 80.625 C 96.464844 80.625 95.625 81.464844 95.625 82.5 C 95.625 83.535156 96.464844 84.375 97.5 84.375 L 101.007812 84.375 C 109.648438 84.203125 116.800781 77.597656 117.660156 68.996094 C 118.523438 60.394531 112.820312 52.503906 104.382812 50.625 C 103.8125 43.804688 98.101562 38.5625 91.257812 38.585938 C 90.832031 38.5625 90.40625 38.5625 89.980469 38.585938 C 89.636719 38.613281 89.292969 38.65625 88.949219 38.71875 L 88.742188 38.71875 L 88.273438 38.832031 L 87.507812 39.019531 C 84.269531 28.714844 74.738281 21.691406 63.9375 21.65625 C 63.148438 21.65625 62.382812 21.65625 61.539062 21.769531 L 60.226562 21.769531 L 59.042969 21.957031 L 58.332031 22.125 L 57.394531 22.351562 C 56.367188 22.636719 55.359375 22.988281 54.375 23.398438 L 53.25 23.90625 L 52.445312 24.320312 C 51.214844 20.273438 49.007812 16.597656 46.011719 13.613281 C 41.738281 9.328125 36.101562 6.675781 30.074219 6.113281 C 29.175781 6.046875 28.355469 6.628906 28.125 7.5 C 27.820312 8.265625 28.046875 9.140625 28.6875 9.65625 C 29.136719 10.011719 29.550781 10.40625 29.960938 10.800781 C 33.6875 14.503906 35.449219 19.75 34.710938 24.949219 C 33.972656 30.152344 30.820312 34.699219 26.210938 37.21875 C 25.300781 37.738281 24.980469 38.894531 25.5 39.804688 C 26.019531 40.71875 27.175781 41.035156 28.085938 40.519531 C 33.101562 37.75 36.71875 33.003906 38.058594 27.4375 C 39.402344 21.871094 38.339844 15.996094 35.136719 11.25 C 42.039062 13.742188 47.261719 19.484375 49.085938 26.585938 L 48.488281 27.054688 L 47.71875 27.695312 L 47.175781 28.179688 C 46.929688 28.386719 46.6875 28.632812 46.445312 28.875 L 45.65625 29.71875 C 45.355469 30.039062 45.09375 30.355469 44.90625 30.601562 C 44.71875 30.84375 44.382812 31.238281 44.136719 31.554688 C 43.910156 31.851562 43.695312 32.15625 43.5 32.476562 C 42.789062 33.484375 42.160156 34.550781 41.625 35.664062 C 41.457031 36.019531 41.289062 36.375 41.136719 36.730469 C 40.988281 37.085938 40.742188 37.648438 40.613281 38.082031 C 40.480469 38.511719 40.386719 38.71875 40.3125 38.960938 C 40.238281 39.207031 40.085938 39.710938 39.976562 40.105469 C 39.863281 40.5 39.804688 40.820312 39.710938 41.15625 C 38.769531 41.1875 37.832031 41.28125 36.898438 41.4375 L 36.675781 41.4375 C 35.808594 41.589844 34.949219 41.796875 34.105469 42.054688 L 33.789062 42.148438 C 32.976562 42.414062 32.179688 42.726562 31.40625 43.085938 L 31.070312 43.238281 C 30.3125 43.601562 29.582031 44.007812 28.875 44.457031 L 28.554688 44.664062 C 27.851562 45.128906 27.175781 45.636719 26.53125 46.179688 L 26.25 46.5 C 25.585938 47.085938 24.960938 47.710938 24.375 48.375 L 24.207031 48.5625 C 23.632812 49.21875 23.101562 49.90625 22.613281 50.625 C 22.078125 51.421875 21.59375 52.257812 21.167969 53.117188 C 14.539062 51.054688 9.265625 46.003906 6.917969 39.46875 C 10.605469 41.910156 14.988281 43.089844 19.40625 42.824219 C 20.441406 42.761719 21.230469 41.871094 21.167969 40.835938 C 21.105469 39.800781 20.214844 39.011719 19.179688 39.074219 C 14.445312 39.347656 9.820312 37.59375 6.449219 34.257812 C 6.050781 33.859375 5.675781 33.4375 5.324219 33 C 4.816406 32.335938 3.929688 32.089844 3.152344 32.394531 C 2.375 32.699219 1.890625 33.480469 1.96875 34.3125 C 2.902344 44.644531 9.921875 53.414062 19.800781 56.585938 C 19.222656 58.554688 18.933594 60.59375 18.9375 62.644531 C 18.902344 68.386719 21.15625 73.90625 25.199219 77.980469 C 29.238281 82.058594 34.738281 84.359375 40.480469 84.375 L 89.679688 84.375 C 90.714844 84.375 91.554688 83.535156 91.554688 82.5 C 91.554688 81.464844 90.714844 80.625 89.679688 80.625 L 40.480469 80.625 C 30.636719 80.613281 22.660156 72.636719 22.648438 62.792969 C 22.640625 60.527344 23.074219 58.277344 23.925781 56.175781 C 26.433594 49.796875 32.402344 45.441406 39.242188 45 L 39.242188 48.207031 C 39.320312 49.183594 40.140625 49.933594 41.117188 49.929688 L 41.25 49.929688 C 42.28125 49.84375 43.042969 48.9375 42.957031 47.90625 L 42.957031 46.351562 C 42.945312 45.347656 43.003906 44.34375 43.125 43.351562 C 43.125 42.957031 43.257812 42.5625 43.332031 42.148438 C 43.40625 41.738281 43.5 41.4375 43.574219 41.117188 C 43.648438 40.800781 43.742188 40.460938 43.875 40.105469 C 44.007812 39.75 44.023438 39.617188 44.117188 39.355469 C 44.210938 39.09375 44.398438 38.605469 44.570312 38.210938 C 44.738281 37.820312 44.832031 37.613281 45 37.273438 C 45.453125 36.320312 45.988281 35.402344 46.59375 34.539062 C 46.742188 34.296875 46.90625 34.066406 47.082031 33.84375 C 47.269531 33.582031 47.457031 33.335938 47.738281 33.019531 C 48.019531 32.699219 48.132812 32.550781 48.375 32.289062 L 49.085938 31.539062 L 49.6875 30.976562 L 50.117188 30.601562 L 50.851562 30 L 51.335938 29.625 L 51.507812 29.492188 C 51.695312 29.34375 51.882812 29.210938 52.085938 29.082031 L 52.179688 29.082031 L 52.3125 28.988281 L 52.480469 28.875 L 52.632812 28.875 L 53.007812 28.632812 C 53.613281 28.273438 54.238281 27.945312 54.882812 27.65625 L 55.761719 27.261719 C 56.601562 26.871094 57.46875 26.53125 58.351562 26.25 L 59.15625 26.0625 L 59.832031 25.914062 L 60.769531 25.761719 L 63.882812 25.761719 C 73.230469 25.792969 81.429688 32 84 40.988281 C 80.269531 43.40625 78.019531 47.550781 78.019531 51.992188 C 78.03125 54.371094 78.679688 56.699219 79.894531 58.742188 C 80.460938 59.519531 81.519531 59.746094 82.351562 59.261719 C 83.183594 58.777344 83.515625 57.746094 83.117188 56.867188 C 82.242188 55.402344 81.78125 53.722656 81.789062 52.011719 C 81.785156 48.4375 83.8125 45.171875 87.019531 43.59375 L 87.355469 43.425781 L 87.695312 43.425781 C 88.132812 43.25 88.582031 43.113281 89.042969 43.011719 L 90.167969 43.011719 C 90.480469 42.992188 90.792969 42.992188 91.105469 43.011719 C 96.285156 43.011719 100.480469 47.210938 100.480469 52.386719 L 100.480469 52.667969 C 100.429688 53.167969 100.578125 53.664062 100.894531 54.050781 C 101.210938 54.4375 101.671875 54.683594 102.167969 54.730469 C 108.085938 56.441406 112.058594 61.984375 111.785156 68.136719 C 111.507812 74.289062 107.050781 79.453125 101.007812 80.625 Z M 101.007812 80.625 "/>
<path style=" stroke:none;fill-rule:nonzero;fill:rgb(100%,100%,100%);fill-opacity:1;" d="M 42.320312 54.039062 C 41.378906 54.464844 40.957031 55.570312 41.382812 56.511719 C 41.667969 57.136719 41.976562 57.761719 42.300781 58.386719 C 42.816406 59.292969 43.972656 59.609375 44.878906 59.089844 C 45.785156 58.574219 46.097656 57.417969 45.582031 56.511719 C 45.292969 56.011719 45.03125 55.492188 44.792969 54.957031 C 44.359375 54.023438 43.257812 53.613281 42.320312 54.039062 Z M 47.230469 89.585938 C 46.230469 89.324219 45.210938 89.921875 44.945312 90.917969 L 42.074219 101.605469 C 41.875 102.261719 42.046875 102.972656 42.523438 103.464844 C 43.003906 103.957031 43.710938 104.144531 44.371094 103.960938 C 45.03125 103.777344 45.539062 103.25 45.695312 102.582031 L 48.5625 91.875 C 48.824219 90.875 48.230469 89.851562 47.230469 89.585938 Z M 67.125 90.917969 L 64.257812 101.605469 C 64.054688 102.261719 64.226562 102.972656 64.707031 103.464844 C 65.183594 103.957031 65.890625 104.144531 66.550781 103.960938 C 67.210938 103.777344 67.71875 103.25 67.875 102.582031 L 70.742188 91.875 C 70.972656 90.890625 70.382812 89.902344 69.40625 89.640625 C 68.429688 89.375 67.421875 89.933594 67.125 90.898438 Z M 89.304688 90.917969 L 86.4375 101.605469 C 86.113281 102.285156 86.230469 103.089844 86.726562 103.652344 C 87.226562 104.214844 88.011719 104.425781 88.722656 104.191406 C 89.4375 103.953125 89.9375 103.3125 90 102.5625 L 92.925781 91.875 C 93.152344 90.890625 92.5625 89.902344 91.585938 89.640625 C 90.609375 89.375 89.601562 89.933594 89.304688 90.898438 Z M 53.0625 111.789062 C 53.933594 111.816406 54.710938 111.242188 54.9375 110.398438 L 59.832031 91.875 C 60.128906 91.199219 60 90.410156 59.503906 89.863281 C 59.007812 89.316406 58.238281 89.109375 57.535156 89.339844 C 56.832031 89.566406 56.332031 90.183594 56.25 90.917969 L 51.28125 109.445312 C 51.125 110.019531 51.253906 110.632812 51.621094 111.097656 C 51.992188 111.5625 52.5625 111.828125 53.15625 111.804688 Z M 78.414062 90.917969 L 72.9375 111.300781 C 72.738281 111.957031 72.910156 112.667969 73.386719 113.160156 C 73.867188 113.648438 74.574219 113.839844 75.234375 113.65625 C 75.894531 113.472656 76.402344 112.941406 76.554688 112.273438 L 82.03125 91.875 C 82.230469 91.21875 82.058594 90.507812 81.582031 90.015625 C 81.101562 89.527344 80.394531 89.335938 79.734375 89.519531 C 79.074219 89.703125 78.566406 90.234375 78.414062 90.898438 Z M 78.414062 90.917969 "/>
</g>
</svg>
