<?xml version="1.0" encoding="UTF-8"?>
<svg xmlns="http://www.w3.org/2000/svg" xmlns:xlink="http://www.w3.org/1999/xlink" width="120px" height="120px" viewBox="0 0 120 120" version="1.1">
<g id="surface1">
<path style=" stroke:none;fill-rule:evenodd;fill:rgb(29.019608%,56.470588%,88.627451%);fill-opacity:1;" d="M 61.917969 92.570312 L 69 92.570312 L 48.664062 120 L 52.082031 99.429688 L 45 99.429688 L 65.335938 72 Z M 68.378906 78 L 72 57 L 55.847656 78 L 22.5 78 C 18.105469 78 14.140625 77 10.808594 75.191406 C 7.476562 73.382812 4.773438 70.769531 2.902344 67.542969 C 1.035156 64.320312 0 60.484375 0 56.234375 C 0 51.980469 1.035156 48.144531 2.902344 44.921875 C 4.773438 41.695312 7.476562 39.082031 10.808594 37.273438 C 11.859375 36.703125 12.972656 36.214844 14.144531 35.8125 C 13.988281 34.777344 13.910156 33.722656 13.910156 32.652344 C 13.910156 20.628906 23.984375 10.882812 36.410156 10.882812 C 42.867188 10.882812 48.6875 13.515625 52.792969 17.730469 C 57.34375 7.3125 68.007812 0 80.4375 0 C 97.007812 0 110.4375 12.996094 110.4375 29.023438 C 110.4375 31.890625 110.007812 34.664062 109.207031 37.28125 C 112.53125 39.089844 115.230469 41.699219 117.097656 44.921875 C 118.964844 48.144531 120 51.980469 120 56.234375 C 120 60.484375 118.964844 64.320312 117.097656 67.542969 C 115.226562 70.769531 112.523438 73.382812 109.191406 75.191406 C 105.859375 77 101.894531 78 97.5 78 Z M 32.597656 82.5 C 34.03125 83.328125 34.523438 85.164062 33.695312 86.597656 L 21.695312 107.382812 C 20.867188 108.816406 19.03125 109.308594 17.597656 108.480469 C 16.164062 107.652344 15.671875 105.816406 16.5 104.382812 L 28.5 83.597656 C 29.328125 82.164062 31.164062 81.671875 32.597656 82.5 Z M 95.597656 82.5 C 97.03125 83.328125 97.523438 85.164062 96.695312 86.597656 L 90.695312 96.992188 C 89.867188 98.425781 88.03125 98.917969 86.597656 98.089844 C 85.164062 97.261719 84.671875 95.425781 85.5 93.992188 L 91.5 83.597656 C 92.328125 82.164062 94.164062 81.671875 95.597656 82.5 Z M 95.597656 82.5 "/>
</g>
</svg>
