<?xml version="1.0" encoding="UTF-8"?>
<svg xmlns="http://www.w3.org/2000/svg" xmlns:xlink="http://www.w3.org/1999/xlink" width="120px" height="120px" viewBox="0 0 120 120" version="1.1">
<g id="surface1">
<path style=" stroke:none;fill-rule:nonzero;fill:rgb(19.215686%,52.156863%,98.823529%);fill-opacity:1;" d="M 27.792969 16.390625 C 30.480469 16.390625 32.664062 14.203125 32.664062 11.519531 C 32.664062 8.835938 30.480469 6.652344 27.792969 6.652344 C 25.109375 6.652344 22.925781 8.835938 22.925781 11.519531 C 22.925781 14.203125 25.109375 16.390625 27.792969 16.390625 Z M 27.792969 16.390625 "/>
<path style=" stroke:none;fill-rule:nonzero;fill:rgb(19.215686%,52.156863%,98.823529%);fill-opacity:1;" d="M 9.035156 69.554688 C 10.96875 69.554688 12.542969 67.980469 12.542969 66.046875 C 12.542969 64.109375 10.96875 62.535156 9.035156 62.535156 C 7.101562 62.535156 5.527344 64.109375 5.527344 66.046875 C 5.527344 67.980469 7.101562 69.554688 9.035156 69.554688 Z M 9.035156 69.554688 "/>
<path style=" stroke:none;fill-rule:nonzero;fill:rgb(19.215686%,52.156863%,98.823529%);fill-opacity:1;" d="M 97.347656 31.339844 C 97.347656 33.277344 95.777344 34.847656 93.839844 34.847656 C 91.902344 34.847656 90.332031 33.277344 90.332031 31.339844 C 90.332031 29.402344 91.902344 27.832031 93.839844 27.832031 C 95.777344 27.832031 97.347656 29.402344 97.347656 31.339844 Z M 97.347656 31.339844 "/>
<path style=" stroke:none;fill-rule:nonzero;fill:rgb(19.215686%,52.156863%,98.823529%);fill-opacity:1;" d="M 110.574219 68.007812 C 112.507812 68.007812 114.082031 66.429688 114.082031 64.496094 C 114.082031 62.5625 112.507812 60.988281 110.574219 60.988281 C 108.640625 60.988281 107.066406 62.5625 107.066406 64.496094 C 107.066406 66.433594 108.640625 68.007812 110.574219 68.007812 Z M 110.574219 68.007812 "/>
<path style=" stroke:none;fill-rule:nonzero;fill:rgb(19.215686%,52.156863%,98.823529%);fill-opacity:1;" d="M 31.839844 44.785156 L 29.257812 49.261719 L 35.445312 52.832031 L 28.296875 55.984375 L 30.378906 60.714844 L 40.992188 56.035156 L 45.273438 58.507812 L 38.121094 61.660156 C 37.183594 62.074219 36.578125 63 36.578125 64.027344 C 36.578125 65.046875 37.183594 65.980469 38.121094 66.390625 L 45.269531 69.542969 L 40.992188 72.011719 L 30.378906 67.335938 L 28.296875 72.066406 L 35.445312 75.21875 L 29.257812 78.789062 L 31.839844 83.265625 L 38.03125 79.695312 L 37.1875 87.460938 L 42.324219 88.019531 L 43.578125 76.492188 L 47.855469 74.019531 L 47.011719 81.789062 C 46.898438 82.808594 47.402344 83.796875 48.289062 84.308594 C 48.691406 84.539062 49.136719 84.65625 49.578125 84.65625 C 50.117188 84.65625 50.65625 84.484375 51.109375 84.15625 L 57.414062 79.539062 L 57.414062 84.480469 L 48.054688 91.328125 L 51.105469 95.5 L 57.414062 90.882812 L 57.414062 98.03125 L 62.582031 98.03125 L 62.582031 90.886719 L 68.890625 95.5 L 71.941406 91.328125 L 62.582031 84.480469 L 62.582031 79.535156 L 68.890625 84.152344 C 69.714844 84.757812 70.820312 84.816406 71.707031 84.308594 C 72.59375 83.796875 73.097656 82.808594 72.984375 81.789062 L 72.140625 74.015625 L 76.421875 76.488281 L 77.675781 88.019531 L 82.8125 87.460938 L 81.96875 79.695312 L 88.15625 83.265625 L 90.742188 78.789062 L 84.554688 75.214844 L 91.703125 72.066406 L 89.621094 67.335938 L 79.003906 72.011719 L 74.726562 69.539062 L 81.875 66.390625 C 82.8125 65.976562 83.417969 65.046875 83.417969 64.023438 C 83.417969 63 82.8125 62.074219 81.875 61.660156 L 74.726562 58.503906 L 79.007812 56.03125 L 89.621094 60.710938 L 91.703125 55.980469 L 84.554688 52.828125 L 90.742188 49.257812 L 88.15625 44.78125 L 81.96875 48.351562 L 82.8125 40.582031 L 77.671875 40.023438 L 76.421875 51.554688 L 72.140625 54.027344 L 72.984375 46.257812 C 73.097656 45.238281 72.59375 44.25 71.707031 43.738281 C 70.820312 43.230469 69.714844 43.285156 68.890625 43.890625 L 62.582031 48.507812 L 62.582031 43.566406 L 71.941406 36.71875 L 68.890625 32.546875 L 62.582031 37.160156 L 62.582031 30.015625 L 57.414062 30.015625 L 57.414062 37.160156 L 51.105469 32.546875 L 48.054688 36.71875 L 57.414062 43.566406 L 57.414062 48.507812 L 51.109375 43.890625 C 50.28125 43.285156 49.175781 43.230469 48.289062 43.738281 C 47.402344 44.25 46.898438 45.238281 47.011719 46.257812 L 47.855469 54.027344 L 43.578125 51.554688 L 42.324219 40.027344 L 37.1875 40.585938 L 38.03125 48.355469 Z M 45.570312 64.027344 L 50.820312 61.710938 L 54.828125 64.023438 L 50.820312 66.339844 Z M 52.785156 76.519531 L 53.40625 70.816406 L 57.414062 68.5 L 57.414062 73.128906 Z M 67.214844 76.519531 L 62.585938 73.128906 L 62.585938 68.503906 L 66.597656 70.816406 Z M 74.425781 64.027344 L 69.179688 66.339844 L 65.171875 64.023438 L 69.179688 61.710938 Z M 67.214844 51.527344 L 66.597656 57.234375 L 62.585938 59.546875 L 62.585938 54.917969 Z M 52.785156 51.527344 L 57.417969 54.917969 L 57.417969 59.546875 L 53.40625 57.230469 Z M 52.785156 51.527344 "/>
</g>
</svg>
