<svg xmlns="http://www.w3.org/2000/svg" width="120" height="120"><defs><clipPath id="a"><path d="M20 40h100v80H20Zm0 0"/></clipPath><clipPath id="b"><path d="M120 60c0 33.137-26.863 60-60 60S0 93.137 0 60 26.863 0 60 0s60 26.863 60 60Zm0 0"/></clipPath><clipPath id="c"><path d="M20 62h100v58H20Zm0 0"/></clipPath><clipPath id="d"><path d="M120 60c0 33.137-26.863 60-60 60S0 93.137 0 60 26.863 0 60 0s60 26.863 60 60Zm0 0"/></clipPath></defs><path style="stroke:none;fill-rule:nonzero;fill:#007db9;fill-opacity:1" d="M120 60c0 33.137-26.863 60-60 60S0 93.137 0 60 26.863 0 60 0s60 26.863 60 60Zm0 0"/><g clip-path="url(#a)"><g clip-path="url(#b)"><path style="stroke:none;fill-rule:nonzero;fill:#0071b1;fill-opacity:1" d="M88.969 40.973 120 71.777V120H54.125l-33.32-33.277Zm0 0"/></g></g><g clip-path="url(#c)"><g clip-path="url(#d)"><path style="stroke:none;fill-rule:nonzero;fill:#006dad;fill-opacity:1" d="M99.672 62.813 120 83.02V120H54.125l-33.32-33.277Zm0 0"/></g></g><path style="stroke:none;fill-rule:nonzero;fill:#ffcc07;fill-opacity:1" d="M67.992 43.8c0 13.032-10.562 23.595-23.594 23.595-13.027 0-23.593-10.563-23.593-23.594S31.37 20.207 44.398 20.207c13.032 0 23.594 10.563 23.594 23.594Zm0 0"/><path style="stroke:none;fill-rule:nonzero;fill:#f4ec4e;fill-opacity:1" d="M60.508 43.8c0 8.9-7.211 16.11-16.11 16.11-8.894 0-16.105-7.21-16.105-16.11 0-8.894 7.21-16.105 16.105-16.105 8.899 0 16.11 7.211 16.11 16.106Zm0 0"/><path style="stroke:none;fill-rule:nonzero;fill:#f5ecdf;fill-opacity:1" d="M52.54 43.8a8.14 8.14 0 1 1-16.275.002 8.14 8.14 0 0 1 16.274-.001Zm0 0"/><path style="stroke:none;fill-rule:nonzero;fill:#6ac5f0;fill-opacity:1" d="M91.531 58.316c.637-1.964.996-4.054.996-6.234 0-11.133-9.027-20.156-20.156-20.156-8.48 0-15.726 5.246-18.703 12.66a16.922 16.922 0 0 0-9.113-2.66c-9.383 0-16.989 7.59-17.028 16.965-6.554 2.37-11.406 8.629-11.406 16.004 0 9.343 7.317 16.921 16.692 17.023v-.043H87.68c9.406 0 17.035-7.598 17.035-17.004-.004-8.082-5.637-14.805-13.184-16.555Zm0 0"/><path style="stroke:none;fill-rule:nonzero;fill:#a8dbee;fill-opacity:1" d="M53.668 44.586a16.922 16.922 0 0 0-9.113-2.66c-9.383 0-16.989 7.59-17.028 16.965-6.554 2.37-11.406 8.629-11.406 16.004 0 3.714 1.172 7.14 3.156 9.94a17.698 17.698 0 0 1-1.379-6.858c0-7.5 5.157-13.868 11.836-16.278.036-9.535 7.786-17.258 17.344-17.258a17.29 17.29 0 0 1 9.285 2.707c3.032-7.543 10.41-12.878 19.047-12.878a20.43 20.43 0 0 1 10.414 2.835c-3.57-3.21-8.273-5.18-13.453-5.18-8.48 0-15.726 5.247-18.703 12.66Zm15.258 18.996a11.906 11.906 0 0 0-6.41-1.871c-6.594 0-11.946 5.336-11.97 11.926-4.612 1.664-8.023 6.066-8.023 11.254 0 2.609.825 5.02 2.22 6.984a12.405 12.405 0 0 1-.97-4.82c0-5.274 3.625-9.75 8.32-11.446.028-6.703 5.477-12.132 12.196-12.132 2.406 0 4.64.707 6.527 1.902 2.133-5.3 7.32-9.05 13.391-9.05 2.676 0 5.176.726 7.324 1.991a14.1 14.1 0 0 0-9.46-3.64c-5.962 0-11.055 3.687-13.145 8.902Zm0 0"/></svg>