<svg xmlns="http://www.w3.org/2000/svg" xmlns:xlink="http://www.w3.org/1999/xlink" width="120" height="120"><defs><clipPath id="b"><path d="M0 0h120v120H0z"/></clipPath><clipPath id="c"><path d="M0 0h120v120H0z"/></clipPath><clipPath id="d"><path d="M0 0h120v120H0z"/></clipPath><mask id="f"><g filter="url(#a)"><path style="fill:#000;fill-opacity:.329412;stroke:none" d="M0 0h120v120H0z"/></g></mask><mask id="h"><g filter="url(#a)"><path style="fill:#000;fill-opacity:.329412;stroke:none" d="M0 0h120v120H0z"/></g></mask><mask id="j"><g filter="url(#a)"><path style="fill:#000;fill-opacity:.329412;stroke:none" d="M0 0h120v120H0z"/></g></mask><g id="e" clip-path="url(#b)"><path style="stroke:none;fill-rule:nonzero;fill:#b5e7fe;fill-opacity:1" d="M68.422 45.813s9.492-12.282 18.05 0c0 0 13.274-5.45 16.423 8.148.199.844 0 3.469 0 3.469s5.87-.133 9.203 4.53c0 0 3.199 15.735-15.739 14 0 0 .075-1.108-5.773 4.63l3.594-1.7s15.37 5.872 22.113-8.398c0 0 3.805-12.398-8.465-17.734 0 0-4.043-18.54-20.16-13.602 0 0-12.512-9.468-21.45 1.73 0 0-5.198 2.509 1.602 4.923m-15.66 2.25s-9.71-14.602-18.27-1.825c0 0-13.058-3.847-16.206 10.301-.196.88 0 3.61 0 3.61s-6.641-.762-8.211 4.917c-1.57 5.668-.25 11.723 18.75 12.583 1.71.074 10.07 1.886 1.77 6.601 0 0-1.044-.676-1.438-.8-5.926-1.973-13.598-1.801-22.7-10.47 0 0-1.808-10.925 7.028-15.492 0 0-.266-14.25 20.02-16.351 0 0 1.187-8.903 26.59 1.902 0 0 .058 2.512-6.74 5.02"/></g><g id="g" clip-path="url(#c)"><path style="stroke:none;fill-rule:nonzero;fill:#b5e7fe;fill-opacity:1" d="M102.266 49.973c0-6.743-10.032-12.207-22.407-12.207-12.37 0-22.402 5.464-22.402 12.207 0 6.742 10.031 12.207 22.402 12.207 12.375 0 22.407-5.465 22.407-12.207Zm0 0"/></g><g id="i" clip-path="url(#d)"><path style="stroke:none;fill-rule:nonzero;fill:#b5e7fe;fill-opacity:1" d="M51.195 50.898c-3.91 3.692-8.086 10.59-18.062 10.59-9.977 0-18.067-4.742-18.067-10.59 0-3.523 5.422-5.296 11.114-7.832 3.754-1.671 7.054-4.859 11.02-4.859 9.976 0 18.956 8.016 13.995 12.691Zm0 0"/></g><filter id="a" filterUnits="objectBoundingBox" x="0%" y="0%" width="100%" height="100%"><feColorMatrix in="SourceGraphic" values="0 0 0 0 1 0 0 0 0 1 0 0 0 0 1 0 0 0 1 0"/></filter></defs><path style="stroke:none;fill-rule:nonzero;fill:#2cc0fe;fill-opacity:1" d="M56.762 41.824s-2.313-2.312-8.184 0c0 0-11.379-10.582-22.402 2.489 0 0-15.555-.356-14.754 14.402 0 0-18.406 10.758.973 19.469 0 0 8.539 12.98 19.914 3.023 0 0 14.578 10.844 19.91-1.598 0 0 12.093 14.223 19.383.532 0 0 12.976 12.625 22.578-1.246 0 0 23.476 8.796 22.047-18.895 0 0-4.266-7.777-9.778-7.242 0 0-3.383-18.668-17.07-13.871 0 0-16.535-8.18-24.004 2.312.004 0-6.688-.324-8.613.625Zm0 0"/><use xlink:href="#e" mask="url(#f)"/><use xlink:href="#g" mask="url(#h)"/><use xlink:href="#i" mask="url(#j)"/><path style="stroke:none;fill-rule:nonzero;fill:#fff;fill-opacity:1" d="M115.246 56.367c-1.797-2.047-3.621-3.43-5.746-4.351a13.035 13.035 0 0 0-1.18-.446c-1.097-5.71-3.605-9.832-7.476-12.25-3.711-2.328-7.703-2.972-11.797-1.828a16.608 16.608 0 0 0-4.777-3.097c-4.665-1.961-9.985-1.461-14.61 1.351-.488.297-.957.625-1.402.977a13.87 13.87 0 0 0-3.68 3.804 17.582 17.582 0 0 0-3.27-.09c-.703.051-1.398.172-2.078.356-3.257-1.734-6.718-2.18-10.25-1.2a15.802 15.802 0 0 0-4.554-2.945c-4.465-1.882-9.582-1.414-14.024 1.297-.468.282-.918.59-1.347.93a13.25 13.25 0 0 0-3.504 3.621 16.714 16.714 0 0 0-3.094-.086c-1.95.121-3.86.785-6.023 2.086-2.82 1.7-4.93 4.688-6.094 8.637a13.882 13.882 0 0 0-.524 4.351 11.836 11.836 0 0 0-6.043 4.356C.176 66.914.707 73.633 5.003 77.465a10.648 10.648 0 0 0 7.727 2.664c1.856 2.879 4.497 4.98 7.387 5.832 2.5.73 4.7.871 6.735.426a13.455 13.455 0 0 0 6.12-3.102c2.669 2.23 6.31 3.504 9.938 3.504.785 0 1.567-.062 2.336-.18a16.222 16.222 0 0 0 8.309-4.007c1.578 1.523 3.383 2.683 5.32 3.253 2.605.77 4.898.918 7.008.45a13.918 13.918 0 0 0 6.422-3.278c2.785 2.352 6.593 3.692 10.402 3.692.816 0 1.629-.059 2.434-.188a17.047 17.047 0 0 0 9.843-5.347c5.704 2.367 12.555 1.523 17.114-2.215 3.5-2.871 5.808-6.82 6.351-10.832.606-4.477-.562-8.766-3.203-11.77ZM44.72 83.238a12.263 12.263 0 0 1-10.528-3.5c-.332-.351-.921-.414-1.406-.398a2.17 2.17 0 0 0-1.383.726 10.143 10.143 0 0 1-5.28 2.989c-1.462.316-3.114.191-5.048-.371-2.347-.692-4.512-2.575-5.933-5.176a1.663 1.663 0 0 0-1.739-.867c-2.293.328-4.53-.297-6.129-1.727-3.418-3.047-2.921-7.988-.722-11.098a8.486 8.486 0 0 1 5.39-3.351 1.716 1.716 0 0 0 1.383-1.906 10.816 10.816 0 0 1 .29-4.461c.64-2.172 1.952-5.098 4.577-6.676 1.676-1.016 3.098-1.524 4.473-1.606a13.306 13.306 0 0 1 3.45.22 1.698 1.698 0 0 0 1.85-.9c.688-1.35 1.743-2.55 3.13-3.523.347-.273.707-.523 1.082-.758 3.496-2.128 7.484-2.52 10.93-1.066a12.569 12.569 0 0 1 4.175 2.906c.461.489 1.36.594 1.989.364a9.781 9.781 0 0 1 5.562-.293c-2.824 1.789-4.95 4.824-6.129 8.828a14.445 14.445 0 0 0-.543 4.59 12.306 12.306 0 0 0-6.34 4.55c-3.742 5.278-3.191 12.262 1.282 16.246 2.168 1.93 5.066 2.895 8.074 2.762.058.094.136.168.195.258-.016.016-.039.02-.055.035a12.814 12.814 0 0 1-6.597 3.203Zm70.351-15.554c-.422 3.168-2.293 6.32-5.132 8.648-3.864 3.16-9.876 3.68-14.618 1.246a1.714 1.714 0 0 0-2.113.453c-2.23 2.79-5.281 4.614-8.582 5.13-4.074.612-8.2-.755-11.094-3.688-.304-.325-.832-.399-1.293-.399l-.117.004c-.488.016-1.074.375-1.39.742a10.722 10.722 0 0 1-5.57 3.153c-1.536.336-3.282.21-5.317-.387-2.477-.73-4.758-2.719-6.258-5.457a1.689 1.689 0 0 0-1.738-.867c-2.442.34-4.793-.32-6.477-1.82-3.61-3.223-3.09-8.446-.762-11.727a8.935 8.935 0 0 1 5.688-3.54 1.711 1.711 0 0 0 1.383-1.902 11.467 11.467 0 0 1 .304-4.707c.672-2.285 2.059-5.363 4.828-7.035 1.758-1.058 3.254-1.593 4.715-1.683 1.27-.082 2.43-.008 3.625.226.75.16 1.512-.21 1.852-.898.726-1.422 1.84-2.692 3.3-3.715.364-.29.743-.555 1.141-.793 3.684-2.238 7.875-2.656 11.504-1.125a13.02 13.02 0 0 1 4.39 3.062c.466.489 1.364.583 2 .364 3.224-1.14 6.571-.711 9.7 1.246 3.23 2.023 5.285 5.722 6.102 10.98a1.71 1.71 0 0 0 1.3 1.403 9.544 9.544 0 0 1 1.704.558c1.664.723 3.062 1.797 4.539 3.477 1.988 2.246 2.855 5.55 2.386 9.05Zm0 0"/></svg>