<svg xmlns="http://www.w3.org/2000/svg" width="120" height="120"><path style="stroke:none;fill-rule:nonzero;fill:#fff;fill-opacity:1" d="M3.75 42.543h4.613a1.875 1.875 0 0 0 0-3.75H3.75a1.875 1.875 0 0 0 0 3.75Zm0 0"/><path style="stroke:none;fill-rule:nonzero;fill:#6e9eff;fill-opacity:1" d="M34.613 88.406h61.875c8.235-.074 14.985-6.554 15.399-14.781.414-8.227-5.657-15.352-13.844-16.25a5.09 5.09 0 0 0 0-.488 11.538 11.538 0 0 0-3.383-8.184 11.536 11.536 0 0 0-8.183-3.383 8.55 8.55 0 0 0-1.184 0h-.918l-.508.13c-.406.09-.805.202-1.199.34H82.5c-.383.14-.758.304-1.125.483-2.422-10.636-11.89-18.175-22.8-18.148-.75 0-1.481 0-2.212.094l-.73.093h-.602l-1.011.168-.79.188-.863.207c-.976.313-1.937.688-2.867 1.125l-1.05.469c-.68.32-1.345.676-1.99 1.07l-.937.617c-.316.188-.617.43-.918.657l-.582.449-.785.656-.246.207a2.232 2.232 0 0 0-.281.262c-.223.187-.43.414-.656.62l-.766.806a9.87 9.87 0 0 0-.734.843c-.223.301-.47.563-.692.883a10.67 10.67 0 0 0-.601.86 20.817 20.817 0 0 0-1.762 2.945c-.168.336-.32.676-.469 1.05-.148.376-.355.844-.508 1.294l-.28.843c-.095.282-.204.711-.298 1.07-.093.356-.187.786-.28 1.16a13.13 13.13 0 0 0-.247 1.352h-.844c-11.133 0-20.156 9.024-20.156 20.157 0 11.132 9.023 20.156 20.156 20.156Zm0 0"/><path style="stroke:none;fill-rule:nonzero;fill:#fedb41;fill-opacity:1" d="M19.727 54.695a20.09 20.09 0 0 1 14.906-6.582h.844c0-.449.148-.918.242-1.351.093-.43.187-.805.281-1.16.094-.36.188-.715.3-1.07.114-.356.188-.563.282-.844.094-.282.316-.864.504-1.293.187-.434.3-.696.469-1.051a20.965 20.965 0 0 1 1.726-2.98 9.88 9.88 0 0 1 .602-.864c.222-.3.449-.602.691-.883.246-.281.469-.562.73-.844l.77-.804c.207-.207.434-.43.656-.617.086-.098.18-.184.282-.266a16.293 16.293 0 1 0-23.27 20.625Zm0 0"/><path style="stroke:none;fill-rule:nonzero;fill:#fff;fill-opacity:1" d="M34.445 109.727a1.88 1.88 0 0 0 1.875-1.391l2.867-10.688a1.872 1.872 0 0 0-1.34-2.234 1.87 1.87 0 0 0-2.277 1.262l-2.87 10.687a1.876 1.876 0 0 0 .343 1.653c.367.468.937.73 1.531.71Zm22.18 0a1.88 1.88 0 0 0 1.875-1.391l2.867-10.688a1.875 1.875 0 0 0-3.617-.973l-2.867 10.688a1.873 1.873 0 0 0 1.875 2.363Zm22.125 0a1.88 1.88 0 0 0 1.875-1.391l2.867-10.688a1.875 1.875 0 0 0-3.617-.973l-2.867 10.688a1.873 1.873 0 0 0 1.875 2.363ZM12.523 35.625A1.872 1.872 0 0 0 15 34.668a14.423 14.423 0 0 1 12.57-8.355 14.432 14.432 0 0 1 13.137 7.437l-.77.805c-.3.32-.582.64-.769.902a17.16 17.16 0 0 0-.711.879c-.234.3-.453.617-.656.937a22.097 22.097 0 0 0-1.875 3.079c-.188.375-.356.75-.508 1.14-.188.453-.395.922-.543 1.371-.148.45-.227.637-.3.899v.226l-.263.899c-.093.355-.187.75-.261 1.125-.715 0-1.406 0-2.121.168l-.672.113c-.469 0-.938.152-1.406.262l-.79.207-1.238.355-.804.301-1.165.469-.785.375-1.09.562-.77.45-1.03.675-.711.528-.977.785-.656.562-.242.207a14.331 14.331 0 0 1-5.907-11.304 1.875 1.875 0 0 0-3.75 0 18.042 18.042 0 0 0 7.051 14.343 22.008 22.008 0 0 0-2.066 23.059 22.015 22.015 0 0 0 19.71 12.152h49.743a1.875 1.875 0 0 0 0-3.75H34.613c-9.86.008-17.945-7.816-18.265-17.672-.32-9.855 7.242-18.183 17.082-18.816v3.3a1.88 1.88 0 0 0 1.875 1.727h.152a1.88 1.88 0 0 0 1.707-2.027v-1.594c-.004-1.449.14-2.89.43-4.312 0-.356.168-.73.261-1.106.094-.375.168-.636.282-.992.113-.36.152-.508.261-.77.114-.261.301-.769.47-1.183.171-.41.28-.637.433-.953a19.57 19.57 0 0 1 1.574-2.758 7.67 7.67 0 0 1 .508-.73c.187-.262.39-.508.672-.844.28-.34.394-.489.656-.75l.676-.73.543-.528.246-.242.187-.153.75-.617.489-.394.168-.13c.222-.175.453-.339.69-.487l.864-.563a19.17 19.17 0 0 1 1.875-.977l.957-.43c.86-.366 1.742-.683 2.645-.937l.804-.207.696-.148.972-.153H58.5a21.528 21.528 0 0 1 20.625 15.622C73.316 49.91 71.52 57.657 75 63.75c.566.777 1.629 1 2.457.52a1.88 1.88 0 0 0 .77-2.395 9.674 9.674 0 0 1 4.273-13.8l.43-.188c.457-.18.93-.325 1.406-.43h.3a9.613 9.613 0 0 1 1.708-.168h.148c5.356 0 9.695 4.34 9.695 9.691v.282a1.876 1.876 0 0 0 1.668 2.082c7.23.758 12.606 7.039 12.243 14.297-.364 7.261-6.34 12.972-13.61 13.004h-4.875a1.875 1.875 0 0 0 0 3.75h4.875c8.965 0 16.469-6.801 17.352-15.723.879-8.922-5.149-17.059-13.942-18.817-.597-6.933-6.386-12.265-13.347-12.3H85.5l-1.07.133h-.45c-.453.09-.906.203-1.347.335A25.318 25.318 0 0 0 58.574 26.25c-.804 0-1.594 0-2.457.113H54.75l-1.2.207-.73.168-.957.242a25.49 25.49 0 0 0-3.093 1.09l-1.145.504c-.734.352-1.445.738-2.137 1.164-.355.207-.695.45-.937.617-.317.2-.625.41-.918.637a18.16 18.16 0 0 0-16.496-8.562 18.153 18.153 0 0 0-15.38 10.437 1.883 1.883 0 0 0-.257 1.559c.148.531.523.969 1.023 1.199Zm15.602-17.008c1.035 0 1.875-.84 1.875-1.875v-4.594a1.875 1.875 0 0 0-3.75 0v4.594c0 1.035.84 1.875 1.875 1.875ZM9.863 25.086a1.868 1.868 0 0 0 2.453-.137 1.876 1.876 0 0 0 .207-2.449l-3.261-3.32a1.87 1.87 0 0 0-2.543.101 1.87 1.87 0 0 0-.102 2.543Zm0 0"/><path style="stroke:none;fill-rule:nonzero;fill:#fff;fill-opacity:1" d="M7.93 62.719c.5.004.98-.192 1.332-.543l3.261-3.262a1.881 1.881 0 1 0-2.66-2.664l-3.246 3.281a1.877 1.877 0 0 0 1.332 3.207ZM45 25.633c.5 0 .977-.195 1.332-.547l3.262-3.262a1.89 1.89 0 0 0-.04-2.68 1.895 1.895 0 0 0-2.679.036l-3.168 3.32a1.87 1.87 0 0 0-.344 1.977A1.882 1.882 0 0 0 45 25.633ZM38.29 58.5a1.885 1.885 0 0 0-1.528-1.2 1.884 1.884 0 0 0-1.774.798 1.886 1.886 0 0 0-.113 1.941c.324.723.68 1.438 1.07 2.137a1.89 1.89 0 0 0 3.282-1.875 14.831 14.831 0 0 1-.938-1.801Zm0 0"/></svg>