<svg xmlns="http://www.w3.org/2000/svg" width="120" height="120"><path style="stroke:none;fill-rule:evenodd;fill:#4a90e2;fill-opacity:1" d="M61.918 92.57H69L48.664 120l3.418-20.57H45L65.336 72ZM68.378 78 72 57 55.848 78H22.5c-4.395 0-8.36-1-11.691-2.809-3.332-1.808-6.036-4.421-7.907-7.648C1.035 64.32 0 60.484 0 56.234c0-4.254 1.035-8.09 2.902-11.312 1.871-3.227 4.575-5.84 7.907-7.649a21.875 21.875 0 0 1 3.336-1.46 21.157 21.157 0 0 1-.235-3.16c0-12.024 10.074-21.77 22.5-21.77 6.457 0 12.278 2.633 16.383 6.847C57.343 7.312 68.008 0 80.438 0c16.57 0 30 12.996 30 29.023 0 2.868-.43 5.641-1.231 8.258 3.324 1.809 6.023 4.418 7.89 7.64 1.868 3.224 2.903 7.06 2.903 11.313 0 4.25-1.035 8.086-2.902 11.309-1.871 3.227-4.575 5.84-7.907 7.648C105.86 77 101.895 78 97.5 78Zm-35.78 4.5a3.001 3.001 0 0 1 1.097 4.098l-12 20.785a3.001 3.001 0 0 1-4.097 1.097 3.001 3.001 0 0 1-1.098-4.097l12-20.785a3.001 3.001 0 0 1 4.098-1.098Zm63 0a3.001 3.001 0 0 1 1.097 4.098l-6 10.394a3.001 3.001 0 0 1-4.097 1.098 3.001 3.001 0 0 1-1.098-4.098l6-10.394a3.001 3.001 0 0 1 4.098-1.098Zm0 0"/></svg>