<?xml version="1.0" encoding="UTF-8"?>
<svg xmlns="http://www.w3.org/2000/svg" xmlns:xlink="http://www.w3.org/1999/xlink" width="120px" height="120px" viewBox="0 0 120 120" version="1.1">
<defs>
<clipPath id="clip1">
  <path d="M 20 40 L 120 40 L 120 120 L 20 120 Z M 20 40 "/>
</clipPath>
<clipPath id="clip2">
  <path d="M 120 60 C 120 93.136719 93.136719 120 60 120 C 26.863281 120 0 93.136719 0 60 C 0 26.863281 26.863281 0 60 0 C 93.136719 0 120 26.863281 120 60 Z M 120 60 "/>
</clipPath>
<clipPath id="clip3">
  <path d="M 20 62 L 120 62 L 120 120 L 20 120 Z M 20 62 "/>
</clipPath>
<clipPath id="clip4">
  <path d="M 120 60 C 120 93.136719 93.136719 120 60 120 C 26.863281 120 0 93.136719 0 60 C 0 26.863281 26.863281 0 60 0 C 93.136719 0 120 26.863281 120 60 Z M 120 60 "/>
</clipPath>
</defs>
<g id="surface1">
<path style=" stroke:none;fill-rule:nonzero;fill:rgb(0%,49.019608%,72.54902%);fill-opacity:1;" d="M 120 60 C 120 93.136719 93.136719 120 60 120 C 26.863281 120 0 93.136719 0 60 C 0 26.863281 26.863281 0 60 0 C 93.136719 0 120 26.863281 120 60 Z M 120 60 "/>
<g clip-path="url(#clip1)" clip-rule="nonzero">
<g clip-path="url(#clip2)" clip-rule="nonzero">
<path style=" stroke:none;fill-rule:nonzero;fill:rgb(0%,44.313725%,69.411765%);fill-opacity:1;" d="M 88.96875 40.972656 L 120 71.777344 L 120 120 L 54.125 120 L 20.804688 86.722656 Z M 88.96875 40.972656 "/>
</g>
</g>
<g clip-path="url(#clip3)" clip-rule="nonzero">
<g clip-path="url(#clip4)" clip-rule="nonzero">
<path style=" stroke:none;fill-rule:nonzero;fill:rgb(0%,42.745098%,67.843137%);fill-opacity:1;" d="M 99.671875 62.8125 L 120 83.019531 L 120 120 L 54.125 120 L 20.804688 86.722656 Z M 99.671875 62.8125 "/>
</g>
</g>
<path style=" stroke:none;fill-rule:nonzero;fill:rgb(100%,80%,2.745098%);fill-opacity:1;" d="M 67.992188 43.800781 C 67.992188 56.832031 57.429688 67.394531 44.398438 67.394531 C 31.371094 67.394531 20.804688 56.832031 20.804688 43.800781 C 20.804688 30.769531 31.371094 20.207031 44.398438 20.207031 C 57.429688 20.207031 67.992188 30.769531 67.992188 43.800781 Z M 67.992188 43.800781 "/>
<path style=" stroke:none;fill-rule:nonzero;fill:rgb(95.686275%,92.54902%,30.588235%);fill-opacity:1;" d="M 60.507812 43.800781 C 60.507812 52.699219 53.296875 59.910156 44.398438 59.910156 C 35.503906 59.910156 28.292969 52.699219 28.292969 43.800781 C 28.292969 34.90625 35.503906 27.695312 44.398438 27.695312 C 53.296875 27.695312 60.507812 34.90625 60.507812 43.800781 Z M 60.507812 43.800781 "/>
<path style=" stroke:none;fill-rule:nonzero;fill:rgb(96.078431%,92.54902%,87.45098%);fill-opacity:1;" d="M 52.539062 43.800781 C 52.539062 48.296875 48.894531 51.941406 44.398438 51.941406 C 39.90625 51.941406 36.261719 48.296875 36.261719 43.800781 C 36.261719 39.304688 39.90625 35.664062 44.398438 35.664062 C 48.894531 35.664062 52.539062 39.304688 52.539062 43.800781 Z M 52.539062 43.800781 "/>
<path style=" stroke:none;fill-rule:nonzero;fill:rgb(41.568627%,77.254902%,94.117647%);fill-opacity:1;" d="M 91.53125 58.316406 C 92.167969 56.351562 92.527344 54.261719 92.527344 52.082031 C 92.527344 40.949219 83.5 31.925781 72.371094 31.925781 C 63.890625 31.925781 56.644531 37.171875 53.667969 44.585938 C 51.03125 42.910156 47.914062 41.925781 44.554688 41.925781 C 35.171875 41.925781 27.566406 49.515625 27.527344 58.890625 C 20.972656 61.261719 16.121094 67.519531 16.121094 74.894531 C 16.121094 84.238281 23.4375 91.816406 32.8125 91.917969 L 32.8125 91.875 L 87.679688 91.875 C 97.085938 91.875 104.714844 84.277344 104.714844 74.871094 C 104.710938 66.789062 99.078125 60.066406 91.53125 58.316406 Z M 91.53125 58.316406 "/>
<path style=" stroke:none;fill-rule:nonzero;fill:rgb(65.882353%,85.882353%,93.333333%);fill-opacity:1;" d="M 53.667969 44.585938 C 51.03125 42.910156 47.914062 41.925781 44.554688 41.925781 C 35.171875 41.925781 27.566406 49.515625 27.527344 58.890625 C 20.972656 61.261719 16.121094 67.519531 16.121094 74.894531 C 16.121094 78.609375 17.292969 82.035156 19.277344 84.835938 C 18.394531 82.730469 17.898438 80.414062 17.898438 77.976562 C 17.898438 70.476562 23.054688 64.109375 29.734375 61.699219 C 29.769531 52.164062 37.519531 44.441406 47.078125 44.441406 C 50.496094 44.441406 53.675781 45.445312 56.363281 47.148438 C 59.394531 39.605469 66.773438 34.269531 75.410156 34.269531 C 79.214844 34.269531 82.769531 35.304688 85.824219 37.105469 C 82.253906 33.894531 77.550781 31.925781 72.371094 31.925781 C 63.890625 31.925781 56.644531 37.171875 53.667969 44.585938 Z M 53.667969 44.585938 "/>
<path style=" stroke:none;fill-rule:nonzero;fill:rgb(65.882353%,85.882353%,93.333333%);fill-opacity:1;" d="M 68.925781 63.582031 C 67.070312 62.402344 64.875 61.710938 62.515625 61.710938 C 55.921875 61.710938 50.570312 67.046875 50.546875 73.636719 C 45.933594 75.300781 42.523438 79.703125 42.523438 84.890625 C 42.523438 87.5 43.347656 89.910156 44.742188 91.875 C 44.121094 90.398438 43.773438 88.769531 43.773438 87.054688 C 43.773438 81.78125 47.398438 77.304688 52.09375 75.609375 C 52.121094 68.90625 57.570312 63.476562 64.289062 63.476562 C 66.695312 63.476562 68.929688 64.183594 70.816406 65.378906 C 72.949219 60.078125 78.136719 56.328125 84.207031 56.328125 C 86.882812 56.328125 89.382812 57.054688 91.53125 58.320312 C 89.019531 56.0625 85.710938 54.679688 82.070312 54.679688 C 76.109375 54.679688 71.015625 58.367188 68.925781 63.582031 Z M 68.925781 63.582031 "/>
</g>
</svg>
