<svg xmlns="http://www.w3.org/2000/svg" width="120" height="120"><path style="stroke:none;fill-rule:nonzero;fill:#7cc9f2;fill-opacity:1" d="M110.07 38.32a10.485 10.485 0 0 0-9.805-11.219 19.077 19.077 0 0 0-16.519-12.253 19.069 19.069 0 0 0-18.043 9.879 14.396 14.396 0 0 0-1.691-.098 15.27 15.27 0 0 0-11.836 5.558 1.874 1.874 0 0 0 1.59 3.059c.199-.012.41-.012.609-.012a24.439 24.439 0 0 1 22.2 14.332 1.875 1.875 0 0 0 2.09 1.059 18.78 18.78 0 0 1 18.046 6.133c.36.418.879.656 1.426.656h14.906c.668 0 1.285-.352 1.621-.926a11.612 11.612 0 0 0 1.586-5.86 11.77 11.77 0 0 0-6.18-10.308Zm0 0"/><path style="stroke:none;fill-rule:nonzero;fill:#9cd5f2;fill-opacity:1" d="M104.957 65.586C104.215 53.73 94.383 44.488 82.5 44.484c-1.055 0-2.105.075-3.148.22a28.196 28.196 0 0 0-24.977-15.22c-.29 0-.602.004-.8.02a27.989 27.989 0 0 0-25.712 18.73c-8.175.153-14.73 6.82-14.738 15 0 .575.035 1.149.102 1.72A16.986 16.986 0 0 0 3.75 80.108a16.611 16.611 0 0 0 2.285 8.454c.336.57.953.921 1.613.921h21.153c.922 0 1.707-.671 1.851-1.582A14.526 14.526 0 0 1 45 75.648c7.145 0 13.23 5.196 14.348 12.254.144.91.93 1.582 1.851 1.582h50.813c.613 0 1.187-.296 1.539-.8a14.892 14.892 0 0 0 2.699-8.575 15.06 15.06 0 0 0-11.293-14.523Zm0 0"/><path style="stroke:none;fill-rule:nonzero;fill:#b2ebf2;fill-opacity:1" d="M63.258 89.27a19.364 19.364 0 0 0-.207-1.954c-1.403-8.879-9.063-15.418-18.055-15.418-8.992 0-16.644 6.543-18.05 15.426a20.261 20.261 0 0 0-.204 1.946 14.944 14.944 0 0 0-9.867 14.05c0 1.035.84 1.875 1.875 1.875h52.5c1.035 0 1.875-.84 1.875-1.875 0-6.293-3.95-11.914-9.867-14.05Zm0 0"/></svg>