<svg xmlns="http://www.w3.org/2000/svg" xmlns:xlink="http://www.w3.org/1999/xlink" width="120" height="120"><defs><clipPath id="b"><path d="M0 0h120v120H0z"/></clipPath><clipPath id="c"><path d="M0 0h120v120H0z"/></clipPath><clipPath id="d"><path d="M0 0h120v120H0z"/></clipPath><mask id="f"><g filter="url(#a)"><path style="fill:#000;fill-opacity:.329412;stroke:none" d="M0 0h120v120H0z"/></g></mask><mask id="h"><g filter="url(#a)"><path style="fill:#000;fill-opacity:.329412;stroke:none" d="M0 0h120v120H0z"/></g></mask><mask id="j"><g filter="url(#a)"><path style="fill:#000;fill-opacity:.329412;stroke:none" d="M0 0h120v120H0z"/></g></mask><g id="e" clip-path="url(#b)"><path style="stroke:none;fill-rule:nonzero;fill:#b5e7fe;fill-opacity:1" d="M68.398 15.758s9.477-12.254 18.012 0c0 0 13.25-5.438 16.39 8.125.196.844 0 3.46 0 3.46s5.856-.132 9.18 4.524c0 0 3.192 15.7-15.699 13.969 0 0 .07-1.106-5.761 4.617l3.59-1.691s15.335 5.855 22.058-8.383c0 0 3.797-12.371-8.445-17.695 0 0-4.035-18.493-20.11-13.57 0 0-12.484-9.45-21.402 1.726 0 0-5.188 2.504 1.598 4.906m-15.633 2.258s-9.692-14.567-18.227-1.82c0 0-13.035-3.836-16.172 10.277-.199.875 0 3.598 0 3.598s-6.625-.754-8.191 4.91C8.02 40.62 9.336 46.66 28.293 47.516c1.703.078 10.043 1.882 1.762 6.593 0 0-1.043-.672-1.43-.804-5.918-1.97-13.574-1.797-22.648-10.446 0 0-1.805-10.898 7.011-15.457 0 0-.27-14.215 19.973-16.308 0 0 1.18-8.88 26.527 1.898 0 0 .059 2.504-6.722 5.008"/></g><g id="g" clip-path="url(#c)"><path style="stroke:none;fill-rule:nonzero;fill:#b5e7fe;fill-opacity:1" d="M102.168 19.906c0-6.726-10.008-12.18-22.352-12.18-12.343 0-22.351 5.454-22.351 12.18 0 6.73 10.008 12.184 22.351 12.184 12.344 0 22.352-5.453 22.352-12.184Zm0 0"/></g><g id="i" clip-path="url(#d)"><path style="stroke:none;fill-rule:nonzero;fill:#b5e7fe;fill-opacity:1" d="M51.215 20.836c-3.903 3.68-8.067 10.562-18.024 10.562s-18.023-4.73-18.023-10.562c0-3.516 5.406-5.29 11.09-7.813C30 11.355 33.297 8.172 37.254 8.172c9.953 0 18.91 7.996 13.96 12.664Zm-16.36 50.191L39.07 83.7l-4.558-2.703c.004 0-3.121-6.613.343-9.969Zm17.11-.976 4.215 12.672-4.559-2.703c.004 0-3.121-6.614.344-9.97Zm19.816-1.137L76 81.59l-4.559-2.707s-3.125-6.61.34-9.969Zm18.606 0 4.218 12.676-4.562-2.707c.004 0-3.117-6.61.344-9.969ZM80.12 88.98l4.215 12.672-4.559-2.703c.004 0-3.12-6.613.344-9.969Zm-11.266 12.672 4.215 12.672-4.558-2.703c.004.004-3.125-6.613.343-9.969ZM56.172 91.605l4.215 12.672-4.559-2.707c.004 0-3.125-6.613.344-9.965Zm0 0"/></g><filter id="a" filterUnits="objectBoundingBox" x="0%" y="0%" width="100%" height="100%"><feColorMatrix in="SourceGraphic" values="0 0 0 0 1 0 0 0 0 1 0 0 0 0 1 0 0 0 1 0"/></filter></defs><path style="stroke:none;fill-rule:nonzero;fill:#2cc0fe;fill-opacity:1" d="M89.895 66.328s8.382 4.258 5.32 14.637c0 0-9.711 1.465-5.32-14.637Zm-19.25 0s8.378 4.258 5.32 14.637c.004 0-9.707 1.465-5.32-14.637Zm-19.172 1.586s8.379 4.258 5.32 14.637c0 0-9.715 1.465-5.32-14.637Zm-17.672.742s8.379 4.254 5.32 14.637c0 0-9.715 1.46-5.32-14.637Zm21.234 20.906s8.38 4.258 5.32 14.637c.004 0-9.707 1.461-5.32-14.636Zm23.95-2.578s8.378 4.254 5.32 14.637c.004 0-9.707 1.465-5.32-14.637ZM68.558 99.52s8.382 4.257 5.32 14.636c0 0-9.711 1.465-5.32-14.636ZM56.766 11.78s-2.309-2.308-8.16 0c0 0-11.352-10.558-22.352 2.485 0 0-15.527-.36-14.727 14.367 0 0-18.359 10.73.977 19.422 0 0 8.516 12.949 19.867 3.015 0 0 14.55 10.82 19.867-1.593 0 0 12.067 14.191 19.336.53 0 0 12.95 12.598 22.531-1.237 0 0 23.422 8.773 21.997-18.856 0 0-4.258-7.758-9.758-7.227 0 0-3.371-18.628-17.028-13.835 0 0-16.496-8.16-23.949 2.308 0-.004-6.68-.324-8.601.621Zm0 0"/><use xlink:href="#e" mask="url(#f)"/><use xlink:href="#g" mask="url(#h)"/><use xlink:href="#i" mask="url(#j)"/><path style="stroke:none;fill-rule:nonzero;fill:#fff;fill-opacity:1" d="M70.488 97.523a1.708 1.708 0 0 0-2.926.52c-.269.773-2.617 7.68-1.93 11.555.352 2.004 1.15 3.828 2.235 5.144 1.113 1.348 2.485 2.078 3.852 2.078.222 0 .445-.02.664-.062 1.086-.192 2.039-.828 2.75-1.852 1.207-1.722 1.64-4.414 1.144-7.191-.691-3.875-5.273-9.555-5.789-10.192Zm1.848 15.43c-.106.149-.316.406-.55.445-.345.082-.837-.27-1.298-.835-.71-.852-1.261-2.153-1.508-3.563-.285-1.613.25-4.387.852-6.672 1.348 1.945 2.805 4.36 3.09 5.977.39 2.25-.067 3.91-.586 4.648Zm42.789-86.66c-1.797-2.047-3.617-3.426-5.734-4.344a12.534 12.534 0 0 0-1.176-.445c-1.09-5.7-3.594-9.813-7.457-12.223-3.707-2.324-7.692-2.969-11.774-1.824a16.412 16.412 0 0 0-4.77-3.09c-4.651-1.96-9.956-1.46-14.57 1.348a14.46 14.46 0 0 0-1.402.973 13.909 13.909 0 0 0-3.668 3.796 17.499 17.499 0 0 0-3.261-.093c-.7.054-1.395.171-2.075.355-3.25-1.726-6.703-2.172-10.226-1.2a15.79 15.79 0 0 0-4.543-2.933c-4.461-1.879-9.567-1.406-13.996 1.293-.47.282-.918.594-1.344.93a13.156 13.156 0 0 0-3.496 3.613 16.663 16.663 0 0 0-3.09-.086c-1.938.121-3.852.782-6.012 2.082-2.816 1.7-4.914 4.676-6.078 8.617a13.81 13.81 0 0 0-.523 4.34 11.838 11.838 0 0 0-6.032 4.352C.312 36.816.844 43.516 5.133 47.34A10.605 10.605 0 0 0 12.84 50c1.848 2.875 4.484 4.969 7.367 5.82 2.492.73 4.688.871 6.723.426a13.374 13.374 0 0 0 6.101-3.094c2.66 2.227 6.293 3.496 9.918 3.496.778 0 1.559-.058 2.332-.18a16.167 16.167 0 0 0 8.285-4c1.575 1.52 3.375 2.68 5.309 3.247 2.598.765 4.887.914 6.992.45a13.902 13.902 0 0 0 6.41-3.27c2.774 2.347 6.578 3.683 10.38 3.683.816 0 1.624-.058 2.429-.187a16.993 16.993 0 0 0 9.816-5.336c5.696 2.36 12.532 1.52 17.075-2.207 3.492-2.864 5.8-6.805 6.335-10.809.61-4.477-.554-8.75-3.187-11.746ZM44.758 53.102a12.235 12.235 0 0 1-10.504-3.493c-.332-.351-.926-.418-1.406-.402a2.138 2.138 0 0 0-1.38.73 10.17 10.17 0 0 1-5.273 2.977c-1.457.316-3.101.195-5.03-.371-2.34-.691-4.5-2.57-5.927-5.164a1.641 1.641 0 0 0-1.726-.86c-2.293.329-4.52-.296-6.117-1.718-3.407-3.04-2.915-7.977-.72-11.078a8.483 8.483 0 0 1 5.376-3.344 1.7 1.7 0 0 0 1.383-1.895 10.954 10.954 0 0 1 .285-4.46c.64-2.169 1.949-5.083 4.57-6.66 1.672-1.009 3.086-1.516 4.457-1.598 1.207-.07 2.305-.008 3.442.218a1.69 1.69 0 0 0 1.847-.898c.688-1.352 1.742-2.547 3.121-3.52.348-.265.707-.52 1.082-.746 3.489-2.125 7.465-2.515 10.907-1.066a12.479 12.479 0 0 1 4.167 2.898c.465.489 1.356.59 1.985.364a9.762 9.762 0 0 1 5.547-.297c-2.817 1.789-4.938 4.812-6.117 8.808-.414 1.422-.598 2.985-.543 4.582a12.262 12.262 0 0 0-6.325 4.54c-3.73 5.261-3.183 12.23 1.278 16.206 2.164 1.93 5.054 2.887 8.054 2.762.063.09.137.168.196.254-.016.016-.04.02-.055.035a12.85 12.85 0 0 1-6.574 3.196Zm70.187-15.524c-.425 3.16-2.293 6.305-5.125 8.629-3.851 3.152-9.847 3.672-14.582 1.246a1.708 1.708 0 0 0-2.105.45c-2.23 2.785-5.274 4.6-8.567 5.12a12.86 12.86 0 0 1-11.066-3.68c-.305-.323-.832-.394-1.29-.394l-.116.004c-.489.012-1.07.371-1.387.734-1.633 1.672-3.398 2.672-5.559 3.145-1.535.336-3.273.207-5.304-.387-2.469-.726-4.746-2.71-6.246-5.445a1.695 1.695 0 0 0-1.735-.867c-2.433.34-4.777-.32-6.465-1.817-3.601-3.21-3.082-8.425-.761-11.695a8.926 8.926 0 0 1 5.672-3.531 1.709 1.709 0 0 0 1.379-1.902 11.396 11.396 0 0 1 .304-4.692c.672-2.285 2.051-5.351 4.82-7.02 1.754-1.062 3.247-1.593 4.704-1.68a13.541 13.541 0 0 1 3.617.227 1.693 1.693 0 0 0 1.847-.894c.727-1.422 1.836-2.684 3.293-3.707a9.96 9.96 0 0 1 1.137-.793c3.68-2.238 7.863-2.649 11.48-1.121a13.066 13.066 0 0 1 4.387 3.05c.457.489 1.36.587 1.996.368 3.22-1.14 6.555-.715 9.68 1.242 3.223 2.02 5.27 5.707 6.086 10.953.11.688.621 1.238 1.297 1.395.574.136 1.148.32 1.7.554 1.66.723 3.058 1.79 4.526 3.47 1.981 2.257 2.852 5.55 2.383 9.038Zm-79.73 29.82a1.704 1.704 0 0 0-1.684-.367 1.708 1.708 0 0 0-1.136 1.297c-.157.809-1.508 7.977-.282 11.715 1.254 3.836 3.89 6.324 6.473 6.324a3.99 3.99 0 0 0 1.227-.195c1.523-.5 2.632-1.926 3.03-3.91.337-1.672.173-3.66-.46-5.594-1.227-3.73-6.563-8.711-7.168-9.27Zm4.289 14.192c-.145.719-.441 1.246-.758 1.351-.668.176-2.469-1.117-3.402-3.96-.508-1.56-.371-4.38-.102-6.727 1.61 1.73 3.395 3.918 3.906 5.476.45 1.364.575 2.766.356 3.86Zm16.195 3.37c.414 0 .824-.065 1.215-.194 1.527-.5 2.629-1.926 3.035-3.914.336-1.672.176-3.657-.46-5.586-1.227-3.739-6.563-8.715-7.169-9.27a1.686 1.686 0 0 0-1.683-.367 1.69 1.69 0 0 0-1.137 1.297c-.156.804-1.508 7.969-.285 11.71.883 2.68 2.523 4.848 4.406 5.802.695.347 1.395.523 2.078.523Zm-3.347-14.116c1.609 1.734 3.39 3.926 3.91 5.484.441 1.36.574 2.762.355 3.852-.144.718-.441 1.25-.758 1.351-.234.078-.535-.054-.695-.136-.805-.403-1.992-1.649-2.707-3.82-.512-1.563-.371-4.38-.105-6.731Zm4.937 15.86a1.685 1.685 0 0 0-1.617-.595 1.689 1.689 0 0 0-1.309 1.114c-.27.773-2.62 7.683-1.933 11.558.355 2.004 1.144 3.828 2.234 5.145C55.777 105.27 57.152 106 58.52 106c.222.004.445-.02.664-.059 3.035-.539 4.703-4.425 3.886-9.043-.683-3.878-5.261-9.558-5.78-10.195Zm1.3 15.886c-.343.039-.835-.274-1.3-.836-.71-.86-1.258-2.152-1.508-3.567-.289-1.617.25-4.386.848-6.675 1.348 1.945 2.805 4.363 3.086 5.98.523 2.942-.43 4.973-1.125 5.098Zm23.04-17.598a1.672 1.672 0 0 0-1.613-.601c-.61.105-1.11.535-1.313 1.117-.27.773-2.625 7.68-1.933 11.55.351 2.004 1.144 3.833 2.234 5.149 1.113 1.344 2.488 2.078 3.855 2.074.223 0 .446-.02.664-.062 1.086-.188 2.036-.828 2.75-1.852 1.207-1.722 1.63-4.414 1.137-7.187-.687-3.875-5.262-9.555-5.781-10.188Zm1.851 15.422c-.105.148-.316.41-.55.45-.285.073-.84-.27-1.301-.837-.715-.851-1.262-2.152-1.508-3.562-.285-1.617.25-4.39.852-6.672 1.347 1.937 2.804 4.36 3.086 5.98.398 2.243-.063 3.903-.579 4.641Zm-3.84-21.203c.34-1.672.18-3.66-.456-5.59-1.227-3.734-6.563-8.715-7.168-9.27a1.71 1.71 0 0 0-1.684-.359 1.71 1.71 0 0 0-1.14 1.29c-.157.808-1.508 7.976-.286 11.714 1.262 3.836 3.895 6.328 6.469 6.328.418 0 .832-.07 1.23-.199 1.528-.496 2.637-1.926 3.036-3.914Zm-3.335-.672c-.145.723-.442 1.25-.758 1.352-.617.203-2.469-1.114-3.399-3.957-.511-1.563-.37-4.383-.101-6.73 1.61 1.734 3.394 3.921 3.906 5.48.442 1.359.57 2.765.352 3.855ZM90.03 64.31a1.702 1.702 0 0 0-2.824.926c-.156.804-1.512 7.976-.285 11.718 1.262 3.836 3.898 6.324 6.473 6.324.418 0 .832-.066 1.23-.199 1.52-.5 2.629-1.922 3.027-3.91.34-1.672.18-3.66-.457-5.594-1.226-3.734-6.558-8.71-7.164-9.265Zm4.285 14.183c-.14.719-.437 1.246-.75 1.352-.71.176-2.468-1.117-3.406-3.961-.512-1.559-.37-4.38-.101-6.727 1.609 1.73 3.394 3.918 3.906 5.48.437 1.364.57 2.766.351 3.856Zm0 0"/></svg>