<svg xmlns="http://www.w3.org/2000/svg" width="120" height="120"><path style="stroke:none;fill-rule:nonzero;fill:#6e9eff;fill-opacity:1" d="M102.523 52.145a4.69 4.69 0 0 0 0-.47c0-6.214-5.035-11.25-11.25-11.25a9.58 9.58 0 0 0-1.16 0c-.277.02-.554.06-.824.114h-.152l-.469.11a9.146 9.146 0 0 0-1.5.468 1.436 1.436 0 0 0-.356.153c-.199.07-.394.16-.582.261-2.257-10.496-11.539-17.992-22.273-18-.73 0-1.445 0-2.156.094l-.715.094h-.578l-.996.148-.77.172-.844.203a24.05 24.05 0 0 0-2.812.996l-1.012.469c-.64.316-1.27.668-1.875 1.05l-.449.282-.43.262c-.32.187-.601.41-.902.637l-.582.449-.766.636-.508.47c-.226.187-.43.394-.636.6l-.75.79c-.262.262-.489.543-.715.824-.223.281-.469.563-.672.863-.21.27-.402.551-.582.844a20.11 20.11 0 0 0-1.687 2.906c-.153.336-.32.672-.47 1.012a11.44 11.44 0 0 0-.487 1.254c-.133.434-.188.562-.262.828-.074.262-.207.691-.301 1.047a20.3 20.3 0 0 0-.262 1.144 95.9 95.9 0 0 0-.246 1.313h-.824a19.693 19.693 0 0 0-18.3 12.395 19.225 19.225 0 0 0-1.423 7.312C20.852 73.508 29.598 82.406 40.48 82.5h60.508c8.192.125 15.012-6.262 15.418-14.445.41-8.184-5.738-15.22-13.898-15.91Zm0 0"/><path style="stroke:none;fill-rule:nonzero;fill:#fedb41;fill-opacity:1" d="M22.18 55.46a19.693 19.693 0 0 1 18.3-12.335h.77c0-.45.148-.898.242-1.313.094-.414.172-.789.266-1.144.094-.355.187-.691.297-1.05.113-.356.172-.563.265-.825.094-.262.317-.844.485-1.254.172-.414.3-.676.468-1.016A20.76 20.76 0 0 1 45 33.563c.18-.29.375-.575.582-.844.223-.301.45-.582.676-.864.222-.28.469-.562.71-.824l.75-.789c.208-.203.415-.41.637-.597l.508-.47.77-.636.617-.414c.3-.227.582-.45.898-.637A23.981 23.981 0 0 0 29.852 8.211c.484.394.953.828 1.406 1.277 7.246 7.246 7.246 19 0 26.25-7.25 7.246-19.004 7.246-26.25 0a17.266 17.266 0 0 1-1.258-1.465 23.978 23.978 0 0 0 18.395 21.188Zm0 0"/><path style="stroke:none;fill-rule:nonzero;fill:#fff;fill-opacity:1" d="M101.008 80.625H97.5a1.875 1.875 0 0 0 0 3.75h3.508c8.64-.172 15.793-6.777 16.652-15.379.863-8.601-4.84-16.492-13.277-18.371-.57-6.82-6.281-12.063-13.125-12.04a11.611 11.611 0 0 0-1.278 0c-.343.028-.687.071-1.03.134h-.208l-.469.113-.765.188a24.791 24.791 0 0 0-23.57-17.364c-.79 0-1.555 0-2.399.114h-1.312l-1.184.187-.711.168-.937.227a25.782 25.782 0 0 0-3.02 1.046l-1.125.508-.805.414a25.626 25.626 0 0 0-6.433-10.707 25.903 25.903 0 0 0-15.938-7.5A1.873 1.873 0 0 0 28.125 7.5a1.876 1.876 0 0 0 .563 2.156c.449.356.863.75 1.273 1.145a16.65 16.65 0 0 1 4.75 14.148 16.65 16.65 0 0 1-8.5 12.27 1.896 1.896 0 0 0-.711 2.586 1.897 1.897 0 0 0 2.586.715 20.394 20.394 0 0 0 9.973-13.083 20.387 20.387 0 0 0-2.922-16.187 22.175 22.175 0 0 1 13.949 15.336l-.598.469-.77.64-.542.485c-.246.207-.489.453-.73.695l-.79.844c-.3.32-.562.636-.75.883-.187.242-.523.636-.77.953-.226.297-.44.601-.636.922a22.277 22.277 0 0 0-1.875 3.187c-.168.356-.336.711-.488 1.066-.149.356-.395.918-.524 1.352-.133.43-.226.637-.3.879-.075.246-.227.75-.336 1.144-.114.395-.172.715-.266 1.051-.941.032-1.879.125-2.813.282h-.222c-.867.152-1.727.359-2.57.617l-.317.093c-.812.266-1.61.579-2.383.938l-.336.152a21.08 21.08 0 0 0-2.195 1.219l-.32.207c-.703.465-1.38.973-2.024 1.516l-.281.32a21 21 0 0 0-1.875 1.875l-.168.188a21.34 21.34 0 0 0-1.594 2.062 21.986 21.986 0 0 0-1.445 2.492A22.122 22.122 0 0 1 6.918 39.47a20.405 20.405 0 0 0 12.488 3.355 1.879 1.879 0 0 0-.226-3.75 16.73 16.73 0 0 1-12.73-4.816c-.4-.399-.774-.82-1.126-1.258a1.874 1.874 0 0 0-3.355 1.313A25.832 25.832 0 0 0 19.8 56.585a21.35 21.35 0 0 0-.863 6.059 21.586 21.586 0 0 0 6.261 15.335 21.59 21.59 0 0 0 15.281 6.395h49.2a1.875 1.875 0 0 0 0-3.75h-49.2c-9.843-.012-17.82-7.988-17.832-17.832a17.469 17.469 0 0 1 1.278-6.617A17.682 17.682 0 0 1 39.242 45v3.207a1.874 1.874 0 0 0 1.875 1.723h.133a1.87 1.87 0 0 0 1.707-2.024v-1.554a22.608 22.608 0 0 1 .168-3c0-.395.133-.79.207-1.204.074-.41.168-.71.242-1.03.074-.317.168-.657.301-1.013.133-.355.148-.488.242-.75A21.089 21.089 0 0 1 45 37.273c.453-.953.988-1.87 1.594-2.734.148-.242.312-.473.488-.695a9.41 9.41 0 0 1 .656-.824c.282-.32.395-.47.637-.73l.71-.75.602-.563.43-.375.735-.602.484-.375.172-.133c.187-.148.375-.281.578-.41h.094l.133-.094.167-.113h.153l.375-.242a18.31 18.31 0 0 1 1.875-.977l.879-.394c.84-.39 1.707-.73 2.59-1.012l.804-.188.676-.148.938-.152h3.113A20.997 20.997 0 0 1 84 40.988a13.116 13.116 0 0 0-5.98 11.004 13.33 13.33 0 0 0 1.875 6.75 1.873 1.873 0 0 0 3.223-1.875 9.388 9.388 0 0 1-1.329-4.855 9.368 9.368 0 0 1 5.23-8.418l.336-.168h.34a8.527 8.527 0 0 1 1.348-.414h1.125c.312-.02.625-.02.937 0a9.375 9.375 0 0 1 9.375 9.375v.281a1.88 1.88 0 0 0 1.688 2.062 13.337 13.337 0 0 1 9.617 13.407 13.334 13.334 0 0 1-10.777 12.488Zm0 0"/><path style="stroke:none;fill-rule:nonzero;fill:#fff;fill-opacity:1" d="M42.32 54.04a1.87 1.87 0 0 0-.937 2.472c.285.625.594 1.25.918 1.875a1.89 1.89 0 0 0 3.281-1.875c-.289-.5-.55-1.02-.789-1.555a1.871 1.871 0 0 0-2.473-.918Zm4.91 35.546c-1-.262-2.02.336-2.285 1.332l-2.87 10.687c-.2.657-.028 1.368.448 1.86.48.492 1.188.68 1.848.496a1.874 1.874 0 0 0 1.324-1.379l2.867-10.707c.262-1-.332-2.023-1.332-2.29Zm19.895 1.332-2.867 10.687a1.867 1.867 0 0 0 .449 1.86c.477.492 1.184.68 1.844.496a1.874 1.874 0 0 0 1.324-1.379l2.867-10.707a1.87 1.87 0 0 0-1.336-2.234 1.873 1.873 0 0 0-2.281 1.257Zm22.18 0-2.868 10.687a1.874 1.874 0 0 0 .29 2.047c.5.563 1.285.774 1.996.54a1.878 1.878 0 0 0 1.277-1.63l2.926-10.687a1.875 1.875 0 0 0-1.34-2.234 1.873 1.873 0 0 0-2.281 1.257Zm-36.243 20.871a1.88 1.88 0 0 0 1.876-1.39l4.894-18.524a1.874 1.874 0 1 0-3.582-.957l-4.969 18.527a1.874 1.874 0 0 0 .34 1.653c.371.465.941.73 1.535.707Zm25.352-20.871-5.477 20.383a1.886 1.886 0 0 0 .45 1.86c.48.487 1.187.679 1.847.495a1.868 1.868 0 0 0 1.32-1.383l5.477-20.398c.2-.656.028-1.367-.449-1.86a1.885 1.885 0 0 0-1.848-.495 1.869 1.869 0 0 0-1.32 1.378Zm0 0"/></svg>