<svg xmlns="http://www.w3.org/2000/svg" width="120" height="120"><path style="stroke:none;fill-rule:nonzero;fill:#3185fc;fill-opacity:1" d="M27.793 16.39a4.877 4.877 0 0 0 4.871-4.87 4.874 4.874 0 0 0-4.871-4.868 4.873 4.873 0 0 0-4.867 4.868 4.876 4.876 0 0 0 4.867 4.87ZM9.035 69.555a3.513 3.513 0 0 0 3.508-3.508 3.513 3.513 0 0 0-3.508-3.512 3.513 3.513 0 0 0-3.508 3.512 3.513 3.513 0 0 0 3.508 3.508ZM97.348 31.34a3.508 3.508 0 1 1-7.015 0 3.508 3.508 0 0 1 7.015 0Zm13.226 36.668a3.516 3.516 0 0 0 3.508-3.512 3.513 3.513 0 0 0-3.508-3.508 3.513 3.513 0 0 0-3.508 3.508 3.513 3.513 0 0 0 3.508 3.512ZM31.84 44.785l-2.582 4.477 6.187 3.57-7.148 3.152 2.082 4.73 10.613-4.679 4.281 2.473-7.152 3.152a2.586 2.586 0 0 0 0 4.73l7.149 3.153-4.278 2.469-10.613-4.676-2.082 4.73 7.148 3.153-6.187 3.57 2.582 4.477 6.191-3.57-.843 7.765 5.136.559 1.254-11.528 4.277-2.472-.843 7.77a2.582 2.582 0 0 0 1.277 2.519c.402.23.848.347 1.29.347.538 0 1.077-.172 1.53-.5l6.305-4.617v4.941l-9.36 6.848 3.051 4.172 6.31-4.617v7.148h5.167v-7.144l6.309 4.613 3.05-4.172-9.359-6.848v-4.945l6.309 4.617a2.582 2.582 0 0 0 4.094-2.363l-.844-7.773 4.28 2.472 1.255 11.532 5.136-.56-.843-7.765 6.187 3.57 2.586-4.476-6.187-3.574 7.148-3.149-2.082-4.73-10.617 4.676-4.277-2.473 7.148-3.148a2.584 2.584 0 0 0 0-4.73l-7.148-3.157 4.28-2.473 10.614 4.68 2.082-4.73-7.148-3.153 6.187-3.57-2.586-4.477-6.187 3.57.844-7.769-5.141-.559-1.25 11.532-4.281 2.472.843-7.77a2.582 2.582 0 0 0-4.093-2.366l-6.309 4.617v-4.942l9.36-6.847-3.051-4.172-6.309 4.613v-7.144h-5.168v7.144l-6.309-4.613-3.05 4.172 9.36 6.847v4.942l-6.306-4.617a2.594 2.594 0 0 0-2.82-.153 2.582 2.582 0 0 0-1.277 2.52l.843 7.77-4.277-2.473-1.254-11.528-5.136.559.843 7.77Zm13.73 19.242 5.25-2.316 4.008 2.312-4.008 2.317Zm7.215 12.493.621-5.704 4.008-2.316v4.629Zm14.43 0-4.63-3.391v-4.625l4.013 2.312Zm7.21-12.493L69.18 66.34l-4.008-2.317 4.008-2.312Zm-7.21-12.5-.617 5.707-4.012 2.313v-4.629Zm-14.43 0 4.633 3.391v4.629l-4.012-2.317Zm0 0"/></svg>